<?xml version="1.0" encoding="UTF-8"?><svg id="Layer_1" xmlns="http://www.w3.org/2000/svg" xmlns:xlink="http://www.w3.org/1999/xlink" viewBox="0 0 548 373" width="548" height="373"><defs><style>.cls-1,.cls-2{fill:none;}.cls-3{fill:url(#linear-gradient-4);}.cls-4{fill:url(#linear-gradient-3);}.cls-5{fill:url(#linear-gradient-2);}.cls-6{font-family:Arial-BoldMT, Arial;font-size:78.28px;font-weight:700;}.cls-7{fill:url(#linear-gradient);}.cls-8{fill:#cbcbca;}.cls-9{clip-path:url(#clippath-11);}.cls-10{clip-path:url(#clippath-10);}.cls-11{clip-path:url(#clippath-1);}.cls-12{clip-path:url(#clippath-3);}.cls-13{clip-path:url(#clippath-4);}.cls-14{clip-path:url(#clippath-2);}.cls-15{clip-path:url(#clippath-7);}.cls-16{clip-path:url(#clippath-6);}.cls-17{clip-path:url(#clippath-9);}.cls-18{clip-path:url(#clippath-8);}.cls-19{clip-path:url(#clippath-5);}.cls-20{fill:#f3f2f2;}.cls-21{fill:#fff;stroke:#000;stroke-width:1.55px;}.cls-21,.cls-2{stroke-miterlimit:10;}.cls-2{stroke:#797979;stroke-width:.37px;}.cls-22{opacity:.5;}.cls-23{clip-path:url(#clippath);}</style><clipPath id="clippath"><rect class="cls-1" x="63" y="71" width="50.37" height="39.23"/></clipPath><clipPath id="clippath-1"><rect class="cls-1" x="63" y="71" width="50.37" height="39.23"/></clipPath><clipPath id="clippath-2"><path class="cls-1" d="M66.86,71.18h42.65c2.03,0,3.67,1.65,3.67,3.67v31.52c0,2.03-1.65,3.67-3.67,3.67h-42.65c-2.03,0-3.67-1.65-3.67-3.67v-31.52c0-2.03,1.65-3.67,3.67-3.67Z"/></clipPath><linearGradient id="linear-gradient" x1="-815.33" y1="-126.23" x2="-814.33" y2="-126.23" gradientTransform="translate(4994.3963 31760.7867) rotate(90) scale(38.8672 -38.8672)" gradientUnits="userSpaceOnUse"><stop offset="0" stop-color="#fff"/><stop offset="0" stop-color="#fff"/><stop offset=".21" stop-color="#fff"/><stop offset=".88" stop-color="#fff"/><stop offset=".9" stop-color="#fafafa"/><stop offset=".92" stop-color="#ebebeb"/><stop offset=".94" stop-color="#d4d4d4"/><stop offset=".96" stop-color="#b3b3b3"/><stop offset=".98" stop-color="#888"/><stop offset="1" stop-color="#666"/></linearGradient><clipPath id="clippath-3"><rect class="cls-1" x="63" y="71" width="50.37" height="39.24"/></clipPath><clipPath id="clippath-4"><rect class="cls-1" x="63" y="71" width="50.37" height="39.23"/></clipPath><clipPath id="clippath-5"><path class="cls-1" d="M66.86,71.18h42.65c2.03,0,3.67,1.65,3.67,3.67v31.52c0,2.03-1.65,3.67-3.67,3.67h-42.65c-2.03,0-3.67-1.65-3.67-3.67v-31.52c0-2.03,1.65-3.67,3.67-3.67Z"/></clipPath><linearGradient id="linear-gradient-2" x1="-804.3" y1="-154.18" x2="-803.3" y2="-154.18" gradientTransform="translate(40278.1837 -7618.6173) scale(50 -50)" gradientUnits="userSpaceOnUse"><stop offset="0" stop-color="#fff"/><stop offset="0" stop-color="#fff"/><stop offset=".21" stop-color="#fff"/><stop offset=".92" stop-color="#fff"/><stop offset=".93" stop-color="#fafafa"/><stop offset=".94" stop-color="#ebebeb"/><stop offset=".96" stop-color="#d4d4d4"/><stop offset=".97" stop-color="#b3b3b3"/><stop offset=".99" stop-color="#888"/><stop offset="1" stop-color="#666"/></linearGradient><clipPath id="clippath-6"><rect class="cls-1" x="195" y="71" width="50.37" height="39.23"/></clipPath><clipPath id="clippath-7"><rect class="cls-1" x="195" y="71" width="50.37" height="39.23"/></clipPath><clipPath id="clippath-8"><path class="cls-1" d="M198.86,71.18h42.65c2.03,0,3.67,1.65,3.67,3.67v31.52c0,2.03-1.65,3.67-3.67,3.67h-42.65c-2.03,0-3.67-1.65-3.67-3.67v-31.52c0-2.03,1.65-3.67,3.67-3.67Z"/></clipPath><linearGradient id="linear-gradient-3" y1="-122.83" y2="-122.83" xlink:href="#linear-gradient"/><clipPath id="clippath-9"><rect class="cls-1" x="195" y="71" width="50.37" height="39.24"/></clipPath><clipPath id="clippath-10"><rect class="cls-1" x="195" y="71" width="50.37" height="39.23"/></clipPath><clipPath id="clippath-11"><path class="cls-1" d="M198.86,71.18h42.65c2.03,0,3.67,1.65,3.67,3.67v31.52c0,2.03-1.65,3.67-3.67,3.67h-42.65c-2.03,0-3.67-1.65-3.67-3.67v-31.52c0-2.03,1.65-3.67,3.67-3.67Z"/></clipPath><linearGradient id="linear-gradient-4" x1="-801.66" x2="-800.66" xlink:href="#linear-gradient-2"/></defs><text class="cls-6" transform="translate(68.4 198.43)"><tspan x="0" y="0" xml:space="preserve">5 + 3  = </tspan></text><line class="cls-21" x1="429.6" y1="96.19" x2="429.6" y2="66.47"/><path class="cls-21" d="M435.53,63.3c2.76,3.27,2.34,8.17-.93,10.93-3.27,2.76-8.17,2.34-10.93-.93-2.76-3.27-2.34-8.17.93-10.93,3.27-2.76,8.17-2.34,10.93.93Z"/><path d="M432.84,68.3c0,1.79-1.45,3.23-3.23,3.23s-3.23-1.45-3.23-3.23,1.45-3.23,3.23-3.23,3.23,1.45,3.23,3.23Z"/><path class="cls-8" d="M374.39,103.93c.27,2.02,0,1.02,0,3.27,0,1.56,2.01,8.29,0,11.45,0,0-2.65,2.45.52,6.52,0,0,0,1.36-1.06,5.42-1.06,4.07,1.06,3.39,1.06,4.75s-1.06,5.42-1.06,5.42c0,0-.34,3.22-.34,3.9s2.46,1.53,2.46,2.88-1.58,3.2-1.58,5.45c0,1.64,1.06,2.19,0,4.91-1.06,2.71-1.79,8.18,0,13.08.31.84-1.06,2.59,0,3.27,1.06.68-2.34,8.93.83,10.96-.96-.66-1.06,2.17,0,6.24,1.06,4.07-2.07,3.87-1.01,11.51,1.01,7.21,2.71,8.77.34,12.38,0,0-2.12,9.49-1.06,10.85,1.06,1.36,1.42,4.07,1.42,4.07,0,0-1.23,3.8-.52,6.13.57,1.89,0,6.54,0,8.18,0,1.01-1.43,2.45.52,4,1.26,1,.79.31,1.27.91.94,1.19.85,4.52,7.2,5.2,0,0,13.46,3.25,19.15.73,0,0,11.95-3.12,25.16-.96,3.92.64,20.2,2.41,25.47.8,5.27-1.61,3.1.77,7.11.77,3.58,0,3.84-2.02,7.1-.62,3.55,1.53,8.63,1.45,8.63,1.45,0,0,10.24-1.36,6.73-4.57,0,0,2.08-.63,1.71-7.8-.3-5.72-1.41-11.72-1.41-11.72,0,0,5.27-4.82,1.76-8.03,0,0-1.76-3.21,0-4.82,1.76-1.61-.11-6.15-.35-8.19-.14-1.16.16-3.52,0-4.68-.11-.78-.3-1.49,0-3.12.29-1.58.35-6.49.35-6.49,0,0,1.76-3.21,0-4.82-1.76-1.61-.35-5.85-.35-5.85,0,0,2.11-5.39.35-6.99-1.76-1.61-1.76-3.21-1.76-3.21,0,0-.35-3.83,1.41-3.83s.88-5.02.88-5.02c0,0-1.79-6.6-1.79-9.81s-.8-8.56-.8-8.56c0,0,3.81-4.89,2.06-8.1-1.76-3.21,0-9.63,0-9.63v-6.42l-1.76-3.21s1.41-2.27,1.76-6.42c.27-3.2-1.76-4.82-1.76-4.82l1.76-6.42-2.64-8.83s-11.42-4.01-16.69-.8c-5.27,3.21-6.62.07-10.54,1.61-2.06.81-6.32.03-6.32.03,0,0-1.71-1.56-11.25-1.63-8.96-.07-10.2.43-12.64,1.63-2.35,1.16-8.44-.03-8.44-.03,0,0-5-1.53-10.33-1.53-1.71,0-8.04,1.7-10.75,1.53-1.39-.09-5.27-1.61-5.27-1.61,0,0-11.05-3.01-15.53,1.08-1.76,1.61-.6,3.7,0,8.18Z"/><path class="cls-20" d="M379.64,106.39c.66,1.85-.29,5.46-.29,6.11s-.47,2.66-.47,4.6,1.44,1.89-1,5.2c0,0-1.23,1.87,1.76,5.77,0,0-1.08.67-1.08,3.92,0,1.62-.68,3.96-.68,5.25s-1.37,3.92-1,5.2c.22.77,1.99,1.95,1.99,2.6v3.9c0,1.3,1.72,3.55.73,5.5-1,1.95-.73,1.65-1.72,4.24-1,2.6,1.47,5.79-.28,10.66,0,0,1.74,6.99,1.74,8.12,0,1.62-2.12,3.3-1.74,4.87,0,0,.75,4.55,1.74,6.49,0,0-1,2.6,0,6.49,1,3.9-1.36,3.03-1.74,6.49-.81,7.34,5.23,11.36,1.74,11.36,0,0-2.6,8.03.29,7.82,0,0-2.66,3.35-1.66,4.65,1,1.3,0,6.19,0,6.19,0,0-2.09,4.14.9,9.98,0,0-3.26,4.16-1.27,5.46,1.99,1.3,8.69,3.14,8.69,3.14,0,0-2.64,2.45,3.33,3.1,0,0,20.61.25,13.57-2.99,0,0,8.98,1.03,12.32,0,5.28-1.62,13.09.32,12.02.82-4.63,2.17,19.01,2.31,23.97.77,4.96-1.54,9.68,1.41,9.68,1.41,0,0,.23-2.94,3.54-1.41,3.31,1.54,8.26,1.54,8.26,1.54,0,0,8.26-1.54,4.96-4.61,0,0,4.96-3.08,1.65-9.23-3.31-6.15,0-9.23,0-9.23,0,0,4.96-4.61,1.65-7.69,0,0-1.65-3.08,0-4.61,1.65-1.54,0-4.61-1.65-4.61s1.65-4.61,1.65-4.61v-3.08s-3.31-3.08-1.65-3.08,1.65-6.15,1.65-6.15c0,0,1.65-3.08,0-4.61-1.65-1.54-.1-9.84-.1-9.84l-1.55-5.54s-1.65-4.61,0-4.61,1.55-2.24,1.55-2.24c0,0,.57-8.27-1.55-5.45-1.77,2.36-.11-2.31-.11-5.39s-1.54-8.46-1.54-8.46c0,0,4.96-4.61,3.31-7.69-1.65-3.08,0-9.23,0-9.23,0,0,1.57-4.05,0-6.15-.53-.71-1.65-3.08-1.65-3.08,0,0-1.47-5.13,1.65-6.15,3.23-1.06-1.65-4.61-1.65-4.61l1.65-6.15s0-4.61-3.31-4.61-.69-3.75-1.79-4.26c-3.33-1.55-8.13-3.43-13.09-.36-4.96,3.08-9.92,1.54-9.92,1.54l-8.26,1.54s0-4.61-8.26-3.08c-8.26,1.54-7.05,2.79-9.92,3.08-3.8.38-9.92-1.54-9.92-1.54,0,0-16.36-4.12-12.19-1.18,2.72,1.91-7.65,1.18-7.65,1.18l-4.96-1.54s-10.69-1.83-10.69.36c0,1.55-3.33,3.1-1.66,7.74Z"/><path d="M420.43,112h7.99c9.51,0,18.66,2.69,23.73,9.32,2.16,2.69,5.31,14.45.11,22.2-7.74,11.7-11.14,17.48-10.51,21.91.25,1.27,1.52,2.53,2.79,2.85,1.4.16,4.44,3,6.98,6.01,4.44,5.53,9.17,20.4,7.04,32.23-3.77,20.97-8.06,22.27-14.6,27.77-11.12,9.36-23.03,7.5-28.23,5.76-2.79-.95-5.96-2.69-7.1-4.11-1.78-2.21-2.54-10.12-2.16-21.18.26-4.9,4.06-18.97,6.09-22.13.89-1.26,2.2-6.39,4.78-10.73l5.44-9.02-7.02-3.58c-2.18-2.09-6.61-4.5-7.8-6.39-2.29-3.64-5.55-8.06-5.42-16.43.13-6.64,1.02-9.64,7.23-21.18l10.67-13.28ZM422.42,124.41c-7.1,3.95-13.03,22.05-8.59,30.11,1.78,3.01,10.1,9.19,16.44,8.06.75-.13,11.68-16.91,11.68-18.97,0-.79,2.51-3.57,3.16-6.11,1.56-6.15.83-10.63-4.75-12.69-6.09-2.37-12.99-3.1-17.94-.42ZM434.51,175.87c-1.18.96-11.96,10.81-15.75,20.62-4.9,12.68-5.08,32.5-.64,34,12.69,4.29,27.34-7.28,30.13-15.82,2.03-6.01,2.04-17.83,1.15-23.05-.51-2.84-3.46-8.17-6.63-10.7-2.79-2.21-8.26-5.05-8.26-5.05Z"/><g id="Edit_Button_White"><g class="cls-23"><g class="cls-11"><g class="cls-14"><rect class="cls-7" x="63.18" y="71.18" width="50" height="38.87"/></g><g class="cls-12"><path class="cls-2" d="M66.86,71.18h42.65c2.03,0,3.67,1.65,3.67,3.67v31.52c0,2.03-1.65,3.67-3.67,3.67h-42.65c-2.03,0-3.67-1.65-3.67-3.67v-31.52c0-2.03,1.65-3.67,3.67-3.67Z"/><g class="cls-22"><g class="cls-13"><g class="cls-19"><rect class="cls-5" x="63.18" y="71.18" width="50" height="38.87"/></g><path class="cls-2" d="M66.86,71.18h42.65c2.03,0,3.67,1.65,3.67,3.67v31.52c0,2.03-1.65,3.67-3.67,3.67h-42.65c-2.03,0-3.67-1.65-3.67-3.67v-31.52c0-2.03,1.65-3.67,3.67-3.67Z"/></g></g><path d="M98.33,94.07v3.39c0,1.42-.5,2.63-1.51,3.63-1.01,1.01-2.22,1.51-3.63,1.51h-14.86c-1.42,0-2.63-.5-3.63-1.51-1.01-1.01-1.51-2.22-1.51-3.63v-14.86c0-1.42.5-2.63,1.51-3.63,1.01-1.01,2.22-1.51,3.63-1.51h14.86c.75,0,1.45.15,2.09.45.18.08.29.22.32.41.03.2-.02.38-.16.52l-.88.88c-.17.17-.36.21-.57.14-.27-.07-.54-.11-.8-.11h-14.86c-.79,0-1.46.28-2.02.84-.56.56-.84,1.23-.84,2.02v14.86c0,.78.28,1.46.84,2.02.56.56,1.23.84,2.02.84h14.86c.79,0,1.46-.28,2.02-.84.56-.56.84-1.23.84-2.02v-2.25c0-.16.05-.29.16-.39l1.14-1.14c.18-.18.39-.22.62-.12.24.1.36.27.36.52M96.61,80.9l5.14,5.14-12,12h-5.14v-5.14l12-12ZM89.04,96.32l2.07-2.07-2.71-2.71-2.07,2.07v1h1.71v1.71h1ZM96.9,83.47c-.19-.19-.39-.18-.59.02l-6.25,6.25c-.2.2-.21.4-.02.59.19.19.39.19.59-.02l6.25-6.25c.2-.2.21-.4.02-.59M104.54,83.25l-1.64,1.64-5.14-5.14,1.64-1.64c.33-.33.74-.5,1.22-.5s.88.17,1.21.5l2.71,2.71c.33.33.5.74.5,1.21s-.17.88-.5,1.21"/></g></g></g></g><g id="Edit_Button_White-2"><g class="cls-16"><g class="cls-15"><g class="cls-18"><rect class="cls-4" x="195.18" y="71.18" width="50" height="38.87"/></g><g class="cls-17"><path class="cls-2" d="M198.86,71.18h42.65c2.03,0,3.67,1.65,3.67,3.67v31.52c0,2.03-1.65,3.67-3.67,3.67h-42.65c-2.03,0-3.67-1.65-3.67-3.67v-31.52c0-2.03,1.65-3.67,3.67-3.67Z"/><g class="cls-22"><g class="cls-10"><g class="cls-9"><rect class="cls-3" x="195.18" y="71.18" width="50" height="38.87"/></g><path class="cls-2" d="M198.86,71.18h42.65c2.03,0,3.67,1.65,3.67,3.67v31.52c0,2.03-1.65,3.67-3.67,3.67h-42.65c-2.03,0-3.67-1.65-3.67-3.67v-31.52c0-2.03,1.65-3.67,3.67-3.67Z"/></g></g><path d="M230.33,94.07v3.39c0,1.42-.5,2.63-1.51,3.63-1.01,1.01-2.22,1.51-3.63,1.51h-14.86c-1.42,0-2.63-.5-3.63-1.51-1.01-1.01-1.51-2.22-1.51-3.63v-14.86c0-1.42.5-2.63,1.51-3.63,1.01-1.01,2.22-1.51,3.63-1.51h14.86c.75,0,1.45.15,2.09.45.18.08.29.22.32.41.03.2-.02.38-.16.52l-.88.88c-.17.17-.36.21-.57.14-.27-.07-.54-.11-.8-.11h-14.86c-.79,0-1.46.28-2.02.84-.56.56-.84,1.23-.84,2.02v14.86c0,.78.28,1.46.84,2.02.56.56,1.23.84,2.02.84h14.86c.79,0,1.46-.28,2.02-.84.56-.56.84-1.23.84-2.02v-2.25c0-.16.05-.29.16-.39l1.14-1.14c.18-.18.39-.22.62-.12.24.1.36.27.36.52M228.61,80.9l5.14,5.14-12,12h-5.14v-5.14l12-12ZM221.04,96.32l2.07-2.07-2.71-2.71-2.07,2.07v1h1.71v1.71h1ZM228.9,83.47c-.19-.19-.39-.18-.59.02l-6.25,6.25c-.2.2-.21.4-.02.59.19.19.39.19.59-.02l6.25-6.25c.2-.2.21-.4.02-.59M236.54,83.25l-1.64,1.64-5.14-5.14,1.64-1.64c.33-.33.74-.5,1.22-.5s.88.17,1.21.5l2.71,2.71c.33.33.5.74.5,1.21s-.17.88-.5,1.21"/></g></g></g></g></svg>