<?xml version="1.0" encoding="UTF-8"?><svg id="Layer_1" xmlns="http://www.w3.org/2000/svg" viewBox="0 0 147 100"><defs><style>.cls-1{fill:#cbcbca;}.cls-2{fill:#f3f2f2;}.cls-3{font-family:Arial-BoldMT, Arial;font-size:27.69px;font-weight:700;}.cls-4{fill:#fff;stroke:#000;stroke-miterlimit:10;stroke-width:.53px;}</style></defs><text class="cls-3" transform="translate(6.17 58.75)"><tspan x="0" y="0">5 + 3 = </tspan></text><line class="cls-4" x1="121.56" y1="22.49" x2="121.56" y2="12.41"/><path class="cls-4" d="M123.57,11.33c.94,1.11.79,2.77-.32,3.71-1.11.94-2.77.79-3.71-.32-.94-1.11-.79-2.77.32-3.71,1.11-.94,2.77-.79,3.71.32Z"/><path d="M122.65,13.03c0,.61-.49,1.1-1.1,1.1s-1.1-.49-1.1-1.1.49-1.1,1.1-1.1,1.1.49,1.1,1.1Z"/><path class="cls-1" d="M102.82,25.11c.09.69,0,.35,0,1.11,0,.53.68,2.81,0,3.88,0,0-.9.83.18,2.21,0,0,0,.46-.36,1.84-.36,1.38.36,1.15.36,1.61s-.36,1.84-.36,1.84c0,0-.12,1.09-.12,1.32s.83.52.83.98-.54,1.08-.54,1.85c0,.55.36.74,0,1.66-.36.92-.61,2.77,0,4.44.1.28-.36.88,0,1.11.36.23-.79,3.03.28,3.72-.33-.23-.36.74,0,2.12.36,1.38-.7,1.31-.34,3.91.34,2.45.92,2.97.12,4.2,0,0-.72,3.22-.36,3.68.36.46.48,1.38.48,1.38,0,0-.42,1.29-.18,2.08.19.64,0,2.22,0,2.77,0,.34-.48.83.18,1.36.43.34.27.1.43.31.32.4.29,1.53,2.44,1.76,0,0,4.57,1.1,6.5.25,0,0,4.05-1.06,8.54-.32,1.33.22,6.85.82,8.64.27,1.79-.54,1.05.26,2.41.26,1.21,0,1.3-.69,2.41-.21,1.21.52,2.93.49,2.93.49,0,0,3.48-.46,2.28-1.55,0,0,.71-.21.58-2.65-.1-1.94-.48-3.98-.48-3.98,0,0,1.79-1.63.6-2.72,0,0-.6-1.09,0-1.63.6-.54-.04-2.09-.12-2.78-.05-.39.05-1.19,0-1.59-.04-.27-.1-.51,0-1.06.1-.54.12-2.2.12-2.2,0,0,.6-1.09,0-1.63-.6-.54-.12-1.99-.12-1.99,0,0,.71-1.83.12-2.37-.6-.54-.6-1.09-.6-1.09,0,0-.12-1.3.48-1.3s.3-1.7.3-1.7c0,0-.61-2.24-.61-3.33s-.27-2.9-.27-2.9c0,0,1.29-1.66.7-2.75-.6-1.09,0-3.27,0-3.27v-2.18l-.6-1.09s.48-.77.6-2.18c.09-1.09-.6-1.63-.6-1.63l.6-2.18-.89-3s-3.87-1.36-5.66-.27c-1.79,1.09-2.25.02-3.58.54-.7.27-2.14,0-2.14,0,0,0-.58-.53-3.82-.55-3.04-.02-3.46.14-4.29.55-.8.39-2.86,0-2.86,0,0,0-1.7-.52-3.51-.52-.58,0-2.73.58-3.65.52-.47-.03-1.79-.54-1.79-.54,0,0-3.75-1.02-5.27.37-.6.54-.2,1.25,0,2.77Z"/><path class="cls-2" d="M104.6,25.95c.22.63-.1,1.85-.1,2.07s-.16.9-.16,1.56.49.64-.34,1.76c0,0-.42.63.6,1.96,0,0-.37.23-.37,1.33,0,.55-.23,1.34-.23,1.78s-.46,1.33-.34,1.76c.08.26.68.66.68.88v1.32c0,.44.58,1.2.25,1.87-.34.66-.25.56-.58,1.44-.34.88.5,1.96-.09,3.62,0,0,.59,2.37.59,2.75,0,.55-.72,1.12-.59,1.65,0,0,.25,1.54.59,2.2,0,0-.34.88,0,2.2.34,1.32-.46,1.03-.59,2.2-.27,2.49,1.78,3.86.59,3.86,0,0-.88,2.72.1,2.65,0,0-.9,1.14-.56,1.58.34.44,0,2.1,0,2.1,0,0-.71,1.4.31,3.39,0,0-1.11,1.41-.43,1.85.68.44,2.95,1.07,2.95,1.07,0,0-.9.83,1.13,1.05,0,0,6.99.09,4.6-1.02,0,0,3.05.35,4.18,0,1.79-.55,4.44.11,4.08.28-1.57.74,6.45.78,8.13.26,1.68-.52,3.29.48,3.29.48,0,0,.08-1,1.2-.48,1.12.52,2.8.52,2.8.52,0,0,2.8-.52,1.68-1.57,0,0,1.68-1.04.56-3.13-1.12-2.09,0-3.13,0-3.13,0,0,1.68-1.57.56-2.61,0,0-.56-1.04,0-1.57.56-.52,0-1.57-.56-1.57s.56-1.57.56-1.57v-1.04s-1.12-1.04-.56-1.04.56-2.09.56-2.09c0,0,.56-1.04,0-1.57-.56-.52-.03-3.34-.03-3.34l-.53-1.88s-.56-1.57,0-1.57.53-.76.53-.76c0,0,.19-2.81-.53-1.85-.6.8-.04-.78-.04-1.83s-.52-2.87-.52-2.87c0,0,1.68-1.57,1.12-2.61-.56-1.04,0-3.13,0-3.13,0,0,.53-1.37,0-2.09-.18-.24-.56-1.04-.56-1.04,0,0-.5-1.74.56-2.09,1.1-.36-.56-1.57-.56-1.57l.56-2.09s0-1.57-1.12-1.57-.23-1.27-.61-1.44c-1.13-.53-2.76-1.16-4.44-.12-1.68,1.04-3.36.52-3.36.52l-2.8.52s0-1.57-2.8-1.04c-2.8.52-2.39.95-3.36,1.04-1.29.13-3.36-.52-3.36-.52,0,0-5.55-1.4-4.14-.4.92.65-2.59.4-2.59.4l-1.68-.52s-3.63-.62-3.63.12c0,.53-1.13,1.05-.56,2.63Z"/><path d="M118.44,27.85h2.71c3.23,0,6.33.91,8.05,3.16.73.91,1.8,4.9.04,7.53-2.63,3.97-3.78,5.93-3.57,7.43.09.43.52.86.95.97.47.05,1.51,1.02,2.37,2.04,1.51,1.88,3.11,6.92,2.39,10.94-1.28,7.12-2.73,7.55-4.95,9.42-3.77,3.18-7.81,2.54-9.58,1.95-.95-.32-2.02-.91-2.41-1.39-.6-.75-.86-3.43-.73-7.19.09-1.66,1.38-6.44,2.07-7.51.3-.43.75-2.17,1.62-3.64l1.85-3.06-2.38-1.21c-.74-.71-2.24-1.53-2.65-2.17-.78-1.23-1.88-2.73-1.84-5.58.04-2.25.34-3.27,2.45-7.19l3.62-4.5ZM119.12,32.06c-2.41,1.34-4.42,7.48-2.92,10.22.6,1.02,3.43,3.12,5.58,2.74.25-.04,3.96-5.74,3.96-6.44,0-.27.85-1.21,1.07-2.07.53-2.09.28-3.61-1.61-4.3-2.07-.8-4.41-1.05-6.09-.14ZM123.22,49.52c-.4.33-4.06,3.67-5.34,7-1.66,4.3-1.72,11.03-.22,11.54,4.3,1.46,9.28-2.47,10.22-5.37.69-2.04.69-6.05.39-7.82-.17-.97-1.17-2.77-2.25-3.63-.95-.75-2.8-1.71-2.8-1.71Z"/></svg>