<?xml version="1.0" encoding="UTF-8"?><svg id="Layer_1" xmlns="http://www.w3.org/2000/svg" viewBox="0 0 548 373" width="548" height="373"><defs><style>.cls-1{font-family:Arial-BoldMT, Arial;font-size:93.64px;font-weight:700;}.cls-2{fill:#cbcbca;}.cls-3,.cls-4{stroke-width:1.52px;}.cls-3,.cls-4,.cls-5{stroke:#000;stroke-miterlimit:10;}.cls-6{fill:#f3f2f2;}.cls-4,.cls-5{fill:#fff;}.cls-5{stroke-width:1.55px;}.cls-7{opacity:.95;}</style></defs><text class="cls-1" transform="translate(44.6 116.38)"><tspan x="0" y="0">35 = </tspan></text><path class="cls-2" d="M499.71,208.09s-2.76-6.87-1.38-8.25c1.38-1.37,1.38-6.87,1.38-6.87h0v-2.75s-2.76-1.37-1.38-5.5c1.38-4.12,2.76-5.5,2.76-5.5,0,0-1.38-1.61-1.38-5.5,0-2.75,1.38-4.12,1.38-4.12l-1.38-2.75,1.38-5.5s-1.38-2.75-1.38-5.5v-6.87c0-2.75,1.38-6.87,1.38-6.87,0,0-4.13-2.75-2.76-5.5,1.12-2.24,2.24-8.11,2.62-10.23.09-.49.03-.98-.18-1.44-.91-1.99-2.44-6.21-1.06-8.96,1.38-2.75-1.38-12.37-1.38-12.37l2.56-12.79c.12-.62.04-1.27-.25-1.84l-2.32-4.62,1.38-8.25s2.76-4.12-1.38-6.87c-4.13-2.75-9.65-4.12-9.65-4.12,0,0-6.89,2.75-11.02,1.37-4.13-1.37-9.65,1.37-9.65,1.37,0,0-8.27,1.37-11.02-1.37-2.76-2.75-9.65,1.37-9.65,1.37l-5.51-1.37s-11.02-1.37-15.16,0c-4.13,1.37-9.65,0-9.65,0,0,0-6.89-2.75-11.02-1.37-4.13,1.37-12.4,1.37-12.4,1.37h-11.02s-8.08-3.22-13.74-.94c-3.13,1.26-6.54,1.7-9.82.91-4.75-1.15-8.13.03-8.13.03l-8.27-1.37s-12.4-1.37-5.51,8.25v9.62s2.46,9.77,0,11c-2.76,1.37,0,9.62,0,9.62l-1.38,6.87,1.38,20.62-1.38,5.5,1.38,4.12-1.38,4.12s-1.38,4.12,0,6.87c1.38,2.75,1.38,6.87,1.38,6.87,0,0-4.13,1.37,0,8.25l-1.38,2.75s-1.38,4.12,0,6.87c1.38,2.75,0,8.25,0,8.25,0,0,.15,3.04,1.38,5.5,1.38,2.75-4.13,12.37,0,16.5,0,0,0,2.75,4.13,2.75s9.65-1.37,9.65-1.37c0,0,2.76,4.12,6.89,2.75,4.13-1.37,9.65-1.37,9.65-1.37l4.13,1.37s2.76-4.12,9.65-1.37c6.89,2.75,17.91,1.37,17.91,1.37,0,0,9.65,1.37,13.78,0,4.13-1.37,17.91,2.75,22.05,1.37,4.13-1.37,11.02-2.75,11.02-2.75l4.13,1.37h13.78s4.13-1.37,6.89-1.37,6.89,1.37,6.89,1.37c0,0,2.76-1.37,6.89-1.37s11.02,4.12,15.16-1.37Z"/><path class="cls-6" d="M496.8,205.46s-2.65-6.6-1.32-7.92c1.32-1.32,1.32-6.6,1.32-6.6h0v-2.64s-2.65-1.32-1.32-5.28c1.32-3.96,2.65-5.28,2.65-5.28,0,0,1.32-2.64-1.32-5.28-2.65-2.64,1.32-3.96,1.32-3.96l-1.32-2.64-1.32-5.28h2.65s-1.32-2.64-1.32-5.28c0-1.13.49-2.26,1.04-3.19.41-.68.14-1.52-.5-1.99-.32-.23-.54-.66-.54-1.43,0-1.76.59-4.11.98-5.48.19-.66-.02-1.36-.54-1.82-1.09-.96-2.68-2.77-1.77-4.59,1.32-2.64,2.65-10.56,2.65-10.56,0,0-2.65-2.64-2.65-3.96s-1.32-3.96,1.32-5.28c2.22-1.11,1.8-7.99.08-8.68-1.41-.56-.22-.7-.48-.96l-.93-2.25s1.32-2.87,1.32-6.6c0-2.64,1.32-5.28,1.32-5.28l-1.64-5.59c-.63-.63-.92-1.53-.78-2.41l1.09-7.84s1.32-5.28-2.65-7.92c-3.97-2.64-7.95-1.32-7.95-1.32,0,0-6.62,2.64-10.6,1.32-3.97-1.32-9.27,1.32-9.27,1.32,0,0-6.85-1.32-10.6-1.32-2.65,0-9.27,1.32-9.27,1.32l-5.3-1.32-7.95-1.32s-2.65,0-6.62,1.32c-3.97,1.32-9.27,0-9.27,0,0,0-6.62-1.32-10.6-1.32-4.19,0-11.92,1.32-11.92,1.32h-5.3l-9.27-1.32s-2.65-1.32-7.95,0c-5.3,1.32-6.62,3.96-10.6,1.32-3.97-2.64-7.95,0-7.95,0l-7.95-1.32s-7.95-1.32-5.3,7.92v9.24s1.18,8.2,0,10.56c-1.32,2.64,0,9.24,0,9.24l-1.32,6.6s-1.32,3.96,1.32,11.88c2.65,7.92,0,7.92,0,7.92l-1.32,5.28.81,2.43c.33.99.33,2.06,0,3.06l-.81,2.43,1.32,3.96s-2.65,0-1.32,2.64c1.32,2.64,1.32,6.6,1.32,6.6,0,0-3.97,1.32,0,7.92l-1.32,2.64s-2.65,5.28,0,6.6c2.65,1.32,0,7.92,0,7.92,0,0-1.32,5.28,1.32,5.28s-3.97,11.88-2.65,15.84c0,0,2.65,2.64,6.62,2.64s9.27-1.32,9.27-1.32c0,0,2.65,3.96,6.62,2.64,3.97-1.32,9.27-1.32,9.27-1.32l3.97,1.32s2.65-3.96,9.27-1.32c6.62,2.64,11.92,1.32,11.92,1.32,0,0-10.6-1.32-2.65-2.64,7.95-1.32,10.6,1.32,10.6,1.32l-2.65,1.32s5.3,1.32,6.62-1.32c1.32-2.64,2.65,2.64,6.62,1.32,3.97-1.32,15.9-1.32,15.9-1.32,0,0,1.32,3.96,5.3,2.64,3.97-1.32,10.6-2.64,10.6-2.64l3.97,1.32s3.97-1.32,6.62-1.32,6.62,1.32,6.62,1.32c0,0,3.97-1.32,6.62-1.32s6.62,1.32,6.62,1.32c0,0,2.65-1.32,6.62-1.32s10.6,3.96,14.57-1.32Z"/><line class="cls-4" x1="453.32" y1="74.5" x2="453.32" y2="43.36"/><path class="cls-3" d="M459.11,40.23c2.7,3.24,2.29,8.07-.91,10.8-3.2,2.73-7.98,2.32-10.68-.92-2.7-3.24-2.29-8.07.91-10.8,3.2-2.73,7.98-2.32,10.68.92Z"/><ellipse cx="453.32" cy="45.17" rx="3.16" ry="3.2"/><path class="cls-2" d="M407.66,80.47c.23,1.72,0,.87,0,2.78,0,1.33,1.71,7.05,0,9.74,0,0-2.25,2.08.45,5.55,0,0,0,1.15-.9,4.62-.9,3.46.9,2.88.9,4.04s-.9,4.61-.9,4.61c0,0-.29,2.74-.29,3.32s2.09,1.3,2.09,2.45-1.35,2.72-1.35,4.64c0,1.39.9,1.87,0,4.17-.9,2.31-1.52,6.96,0,11.13.26.71-.9,2.21,0,2.78.9.58-1.99,7.6.71,9.33-.82-.56-.9,1.85,0,5.31.9,3.46-1.76,3.29-.86,9.79.86,6.13,2.31,7.46.29,10.54,0,0-1.8,8.08-.9,9.23.9,1.15,1.21,3.46,1.21,3.46,0,0-1.04,3.24-.45,5.22.48,1.61,0,5.57,0,6.96,0,.86-1.21,2.08.45,3.4,1.07.85.67.26,1.08.77.8,1.01.72,3.84,6.12,4.42,0,0,11.45,2.76,16.29.62,0,0,10.16-2.65,21.41-.81,3.34.55,17.19,2.05,21.67.68,4.48-1.37,2.64.65,6.05.65,3.04,0,3.27-1.72,6.04-.52,3.02,1.3,7.34,1.23,7.34,1.23,0,0,8.71-1.16,5.73-3.89,0,0,1.77-.53,1.45-6.64-.25-4.86-1.2-9.97-1.2-9.97,0,0,4.48-4.1,1.49-6.83,0,0-1.49-2.73,0-4.1,1.49-1.37-.09-5.24-.3-6.97-.12-.99.13-3,0-3.98-.09-.67-.25-1.27,0-2.65.25-1.35.3-5.52.3-5.52,0,0,1.49-2.73,0-4.1-1.49-1.37-.3-4.98-.3-4.98,0,0,1.79-4.58.3-5.95-1.49-1.37-1.49-2.73-1.49-2.73,0,0-.3-3.26,1.2-3.26s.75-4.28.75-4.28c0,0-1.52-5.62-1.52-8.35s-.68-7.28-.68-7.28c0,0,3.24-4.16,1.75-6.89-1.49-2.73,0-8.2,0-8.2v-5.46l-1.49-2.73s1.2-1.93,1.49-5.46c.23-2.72-1.49-4.1-1.49-4.1l1.49-5.46-2.24-7.51s-9.72-3.42-14.2-.68c-4.48,2.73-5.63.06-8.97,1.37-1.75.69-5.38.02-5.38.02,0,0-1.45-1.33-9.57-1.39-7.62-.06-8.68.36-10.76,1.39-2,.99-7.18-.02-7.18-.02,0,0-4.26-1.3-8.79-1.3-1.45,0-6.84,1.45-9.15,1.3-1.18-.07-4.48-1.37-4.48-1.37,0,0-9.4-2.56-13.21.92-1.49,1.37-.51,3.15,0,6.96Z"/><path class="cls-6" d="M412.12,82.56c.56,1.57-.25,4.65-.25,5.2s-.4,2.26-.4,3.92,1.23,1.61-.85,4.42c0,0-1.04,1.59,1.5,4.91,0,0-.92.57-.92,3.33,0,1.38-.58,3.37-.58,4.47s-1.16,3.34-.85,4.42c.19.65,1.69,1.66,1.69,2.21v3.32c0,1.11,1.46,3.02.62,4.68-.85,1.66-.62,1.4-1.46,3.61-.85,2.21,1.25,4.92-.23,9.07,0,0,1.48,5.94,1.48,6.91,0,1.38-1.8,2.8-1.48,4.14,0,0,.64,3.87,1.48,5.53,0,0-.85,2.21,0,5.53.85,3.32-1.16,2.58-1.48,5.53-.69,6.25,4.45,9.67,1.48,9.67,0,0-2.22,6.83.25,6.65,0,0-2.26,2.85-1.42,3.95.85,1.11,0,5.27,0,5.27,0,0-1.77,3.52.77,8.49,0,0-2.77,3.54-1.08,4.64,1.69,1.11,7.4,2.67,7.4,2.67,0,0-2.25,2.08,2.83,2.63,0,0,17.53.22,11.54-2.55,0,0,7.64.87,10.48,0,4.49-1.38,11.14.27,10.23.7-3.94,1.85,16.17,1.96,20.39.65,4.22-1.31,8.24,1.2,8.24,1.2,0,0,.2-2.5,3.01-1.2,2.81,1.31,7.03,1.31,7.03,1.31,0,0,7.03-1.31,4.22-3.93,0,0,4.22-2.62,1.41-7.85-2.81-5.23,0-7.85,0-7.85,0,0,4.22-3.93,1.41-6.54,0,0-1.41-2.62,0-3.93,1.41-1.31,0-3.93-1.41-3.93s1.41-3.93,1.41-3.93v-2.62s-2.81-2.62-1.41-2.62,1.41-5.23,1.41-5.23c0,0,1.41-2.62,0-3.93-1.41-1.31-.08-8.38-.08-8.38l-1.32-4.71s-1.41-3.93,0-3.93,1.32-1.9,1.32-1.9c0,0,.48-7.04-1.32-4.64-1.51,2-.09-1.97-.09-4.58s-1.31-7.19-1.31-7.19c0,0,4.22-3.93,2.81-6.54-1.41-2.62,0-7.85,0-7.85,0,0,1.33-3.44,0-5.23-.45-.6-1.41-2.62-1.41-2.62,0,0-1.25-4.37,1.41-5.23,2.75-.9-1.41-3.93-1.41-3.93l1.41-5.23s0-3.93-2.81-3.93-.58-3.19-1.52-3.62c-2.83-1.32-6.92-2.92-11.14-.3-4.22,2.62-8.44,1.31-8.44,1.31l-7.03,1.31s0-3.93-7.03-2.62c-7.03,1.31-6,2.38-8.44,2.62-3.23.32-8.44-1.31-8.44-1.31,0,0-13.92-3.5-10.37-1.01,2.32,1.63-6.51,1.01-6.51,1.01l-4.22-1.31s-9.1-1.56-9.1.3c0,1.32-2.83,2.64-1.42,6.59Z"/><path d="M438.87,92.08c1.01.66,3.84.55,7.07-.22,3.23-.78,11-1.11,20.39-.78l15.04.56,2.93,3.54c1.51,1.88,2.82,3.99,2.82,4.54,0,2.1-5.45,2.54-15.04,1.22-5.35-.77-13.02-1.22-17.16-1-6.66.33-7.67.66-9.39,3.1-2.79,4.28-2.61,11.91-3.43,18.7q-.71,5.98,1.71,5.2c4.85-1.55,14.64-1.99,18.67-.77,3.33,1,4.74,2.32,7.47,6.97,2.83,4.76,3.73,7.64,4.85,16.38,1.44,11.76.5,14.88-1.31,22.36-1.21,6.53-12.42,16.71-22.41,20.25-4.85,1.77-5.55,1.77-8.48.11-1.82-1-3.83-1.77-4.54-1.77s-2.62-1.33-4.34-2.88c-3.33-3.1-3.94-6.53-1.82-9.74,1.11-1.66,1.71-1.88,3.53-.77,1.21.66,2.22,1.99,2.22,2.88,0,2.21,5.25,4.98,9.39,4.98,3.73,0,11.81-4.09,15.95-7.97,4.34-4.09,6.16-9.3,6.46-18.15.3-10.29-1.62-17.04-6.26-21.47-3.23-3.1-4.14-3.43-9.69-3.21-6.46.22-10.4,1.77-12.72,4.76-2.02,2.66-4.85,2.1-6.76-1.11-1.62-2.65-1.62-2.99-.1-5.97,2.52-4.41,2.7-14.17,3.53-20.59.81-5.53.81-5.76-2.32-8.52-2.73-2.32-3.13-3.43-2.73-6.31.3-2.21,1.21-3.76,2.62-4.43,1.11-.44,2.93-.44,3.83.11Z"/><path d="M382.26,189.8c-1.4,1.49-3.45,2.67-4.52,2.67-3.67,0-4.74-5.77-4.42-24.57,1.08-70.17,1.18-65.26-1.18-66.22-1.29-.43,2.26-13.24,3.01-13.78.76-.64,3.24-1.17,5.6-1.17s1.4,15.06.97,38.56c-.22,10.25-.65,20.29-.97,22.32-.86,5.66-.86,30.86,0,32.14"/><line class="cls-5" x1="205.65" y1="186.39" x2="205.65" y2="156.67"/><path class="cls-5" d="M211.58,153.5c2.76,3.27,2.34,8.17-.93,10.93-3.27,2.76-8.17,2.34-10.93-.93-2.76-3.27-2.34-8.17.93-10.93,3.27-2.76,8.17-2.34,10.93.93Z"/><path d="M208.89,158.5c0,1.79-1.45,3.23-3.23,3.23s-3.23-1.45-3.23-3.23,1.45-3.23,3.23-3.23,3.23,1.45,3.23,3.23Z"/><g class="cls-7"><path class="cls-2" d="M284.62,326.46s-2.76-6.88-1.38-8.26c1.38-1.38,1.38-6.88,1.38-6.88h0v-2.75s-2.76-1.38-1.38-5.51c1.38-4.13,2.76-5.51,2.76-5.51,0,0-1.38-1.61-1.38-5.51,0-2.75,1.38-4.13,1.38-4.13l-1.38-2.75,1.38-5.51s-1.38-2.75-1.38-5.51v-6.88c0-2.75,1.38-6.88,1.38-6.88,0,0-4.14-2.75-2.76-5.51,1.12-2.24,2.25-8.13,2.63-10.24.09-.49.03-.98-.18-1.44-.91-1.99-2.44-6.22-1.06-8.97,1.38-2.75-1.38-12.39-1.38-12.39l2.57-12.81c.13-.62.04-1.27-.25-1.84l-2.32-4.63,1.38-8.26s2.76-4.13-1.38-6.88c-4.14-2.75-9.66-4.13-9.66-4.13,0,0-6.9,2.75-11.04,1.38-4.14-1.38-9.66,1.38-9.66,1.38,0,0-8.28,1.38-11.04-1.38-2.76-2.75-9.66,1.38-9.66,1.38l-5.52-1.38s-11.04-1.38-15.18,0c-4.14,1.38-9.66,0-9.66,0,0,0-6.9-2.75-11.04-1.38-4.14,1.38-12.42,1.38-12.42,1.38h-11.04s-8.09-3.23-13.76-.95c-3.14,1.26-6.55,1.71-9.84.91-4.76-1.15-8.14.03-8.14.03l-8.28-1.38s-12.42-1.38-5.52,8.26v9.64s2.47,9.78,0,11.02c-2.76,1.38,0,9.64,0,9.64l-1.38,6.88,1.38,20.65-1.38,5.51,1.38,4.13-1.38,4.13s-1.38,4.13,0,6.88c1.38,2.75,1.38,6.88,1.38,6.88,0,0-4.14,1.38,0,8.26l-1.38,2.75s-1.38,4.13,0,6.88c1.38,2.75,0,8.26,0,8.26,0,0,.15,3.04,1.38,5.51,1.38,2.75-4.14,12.39,0,16.52,0,0,0,2.75,4.14,2.75s9.66-1.38,9.66-1.38c0,0,2.76,4.13,6.9,2.75,4.14-1.38,9.66-1.38,9.66-1.38l4.14,1.38s2.76-4.13,9.66-1.38c6.9,2.75,17.94,1.38,17.94,1.38,0,0,9.66,1.38,13.8,0,4.14-1.38,17.94,2.75,22.08,1.38,4.14-1.38,11.04-2.75,11.04-2.75l4.14,1.38h13.8s4.14-1.38,6.9-1.38,6.9,1.38,6.9,1.38c0,0,2.76-1.38,6.9-1.38s11.04,4.13,15.18-1.38Z"/><path class="cls-6" d="M281.71,323.82s-2.65-6.61-1.33-7.94c1.33-1.32,1.33-6.61,1.33-6.61h0v-2.64s-2.65-1.32-1.33-5.29c1.33-3.97,2.65-5.29,2.65-5.29,0,0,1.33-2.64-1.33-5.29-2.65-2.64,1.33-3.97,1.33-3.97l-1.33-2.65-1.33-5.29h2.65s-1.33-2.65-1.33-5.29c0-1.13.49-2.27,1.04-3.19.41-.68.15-1.53-.5-1.99-.32-.23-.54-.66-.54-1.43,0-1.76.59-4.11.98-5.49.19-.66-.02-1.37-.54-1.82-1.09-.96-2.68-2.78-1.77-4.59,1.33-2.64,2.65-10.58,2.65-10.58,0,0-2.65-2.65-2.65-3.97s-1.33-3.97,1.33-5.29c2.22-1.11,1.81-8,.08-8.69-1.41-.56-.22-.7-.48-.96l-.93-2.25s1.33-2.87,1.33-6.61c0-2.64,1.33-5.29,1.33-5.29l-1.64-5.6c-.63-.63-.92-1.53-.78-2.42l1.09-7.85s1.33-5.29-2.65-7.94c-3.98-2.64-7.96-1.32-7.96-1.32,0,0-6.63,2.65-10.62,1.32-3.98-1.32-9.29,1.32-9.29,1.32,0,0-6.86-1.32-10.62-1.32-2.65,0-9.29,1.32-9.29,1.32l-5.31-1.32-7.96-1.32s-2.65,0-6.63,1.32c-3.98,1.32-9.29,0-9.29,0,0,0-6.63-1.32-10.62-1.32-4.2,0-11.94,1.32-11.94,1.32h-5.31l-9.29-1.32s-2.65-1.32-7.96,0c-5.31,1.32-6.63,3.97-10.62,1.32-3.98-2.64-7.96,0-7.96,0l-7.96-1.32s-7.96-1.32-5.31,7.94v9.26s1.19,8.21,0,10.58c-1.33,2.64,0,9.26,0,9.26l-1.33,6.61s-1.33,3.97,1.33,11.9c2.65,7.94,0,7.94,0,7.94l-1.33,5.29.81,2.44c.33.99.33,2.07,0,3.06l-.81,2.44,1.33,3.97s-2.65,0-1.33,2.65c1.33,2.65,1.33,6.61,1.33,6.61,0,0-3.98,1.32,0,7.94l-1.33,2.65s-2.65,5.29,0,6.61c2.65,1.32,0,7.93,0,7.93,0,0-1.33,5.29,1.33,5.29s-3.98,11.9-2.65,15.87c0,0,2.65,2.64,6.63,2.64s9.29-1.32,9.29-1.32c0,0,2.65,3.97,6.63,2.65,3.98-1.32,9.29-1.32,9.29-1.32l3.98,1.32s2.65-3.97,9.29-1.32c6.63,2.65,11.94,1.32,11.94,1.32,0,0-10.62-1.32-2.65-2.65,7.96-1.32,10.62,1.32,10.62,1.32l-2.65,1.32s5.31,1.32,6.63-1.32c1.33-2.64,2.65,2.65,6.63,1.32,3.98-1.32,15.92-1.32,15.92-1.32,0,0,1.33,3.97,5.31,2.65,3.98-1.32,10.62-2.65,10.62-2.65l3.98,1.32s3.98-1.32,6.63-1.32,6.63,1.32,6.63,1.32c0,0,3.98-1.32,6.63-1.32s6.63,1.32,6.63,1.32c0,0,2.65-1.32,6.63-1.32s10.62,3.97,14.6-1.32Z"/><path d="M243.86,208.93c4.62,0,5.51.41,8.17,3.28,1.57,1.85,2.86,3.7,2.86,4.21s.79,1.95,1.87,3.38c4.43,5.85,8.66,28.21,6.99,37.24-.49,2.97-.99,7.9-.99,10.87,0,7.08-1.57,11.9-8.95,27.5-5.71,12-13.09,16.1-21.35,11.79-9.65-5.13-15.25-12.21-17.02-21.85-.4-2.26-1.18-5.95-1.77-8.21-1.18-5.02-.69-22.05.89-29.44,2.46-11.39,3.15-13.85,5.71-19.29,3.05-6.67,10.04-14.77,14.96-17.44,2.07-1.23,5.51-1.95,8.66-2.05ZM238.74,217.13c-2.85,0-9.54,7.8-13.09,15.39-3.44,7.18-7.18,24.41-7.18,33.23,0,6.98,3.64,22.57,6.1,25.75,5.51,7.28,15.06,9.95,19.78,5.43,1.38-1.33,3.84-6.05,5.51-10.56,1.77-4.52,3.54-9.13,4.04-10.26,1.53-3.52,2.03-11.18,2.75-15.9,1.18-8.72-.49-27.39-2.85-32.01-2.17-4.21-5.22-8-6.4-8-1.74,0-6.64-3.08-8.66-3.08Z"/><path d="M188.27,217.4c1.04,2.05,2.37,6.37,2.94,9.61,2.27,12.63-3.03,33.04-11.47,44.16-1.8,2.38-3.22,4.64-3.22,5.08s-3.32,4.42-7.39,8.74c-3.98,4.43-6.82,7.99-6.35,8.1.57,0,1.7.22,2.75.43.95.22,7.49.65,14.5.87,13.08.54,16.68,1.73,18.01,5.83,1.23,3.67-6.73,6.26-11.18,3.56-2.75-1.73-27.96-1.73-33.83,0-6.45,1.95-8.25.87-8.25-4.96,0-3.78.38-4.32,3.89-6.37,6.35-3.56,9.86-6.8,19.05-17.6,9.29-10.9,13.84-19.32,16.87-30.98,2.94-11.45,1.14-19.43-5.69-25.59-5.5-4.86-14.69-1.62-25.3,8.96-4.64,4.64-5.78,5.29-7.01,4.11-1.89-1.84-1.33-6.59,1.04-7.99,1.14-.54,3.89-2.81,6.16-4.97,5.02-4.53,8.63-7.34,12.7-9.82,6.07-3.78,17.82.97,21.8,8.85Z"/></g></svg>