<?xml version="1.0" encoding="UTF-8"?><svg id="Layer_1" xmlns="http://www.w3.org/2000/svg" viewBox="0 0 548 373" width="548" height="373"><defs><style>.cls-1{fill:#fdd10b;}.cls-2{fill:#957346;}.cls-3{fill:#e0bfa4;}.cls-4{stroke-width:1.66px;}.cls-4,.cls-5,.cls-6{fill:none;stroke-miterlimit:10;}.cls-4,.cls-6{stroke:#000;}.cls-7{fill:#fff;}.cls-8{fill:#fcff00;}.cls-5{stroke:#231f20;stroke-width:1.86px;}.cls-6{stroke-width:3.83px;}.cls-9{fill:#070606;}</style></defs><path class="cls-3" d="M324.89,270.25c.33-2.15,1.3-5.83,3.66-5.17,2.09.6,2.87,2.81,3.14,4.32.18.85.18,1.45.18,1.45,0,0,.91,4.02-3.05,4.11-3.93.09-4.2-2.48-4.11-3.26,0-.03.03-.63.18-1.45Z"/><path class="cls-3" d="M345.02,256.29c.85-.88,2.09-1.54,3.87-1.36,3.63.39,2.36,2.66,2,3.51,0,0-1.63,3.29-1.42,4.62.15,1.33-4.93,2.51-5.62.97l-.3-.06c-.15.7-.39,1.48-.76,2.3-.94,2.09-2.12,2.66-3.39,2.42-1-.18-2.54-1.06-3.72-1.75,0,0-2.57,2.33-3.81,2.45l-.18.03c-.27-1.51-1.06-3.72-3.14-4.32-2.36-.67-3.33,3.02-3.66,5.17l-.66-.12c-.3-.06-.58-.15-.85-.24-6.41-2.18-5.53-9.67-4.54-13.82.55-2.27,2.18-3.87,3.63-4.93,1.33-.94,2.51-1.42,2.51-1.42.3-.94.63-1.81,1.06-2.27,1.12-1.24,11.82-3.63,11.82-3.63,0,0-4.14,3.63,1.39-.63,5.56-4.29,13.06-2.39,13.06-2.39,0,0,1.3.6-2.84,3.39-4.17,2.78-7.56,6.35-7.56,6.35l-1.03,4.11s1.48,1.12,3.93,1.42l.21.21Z"/><path class="cls-3" d="M322.47,251.15c-1.45,1.06-3.08,2.66-3.63,4.93-1,4.14-1.87,11.64,4.54,13.82-.85.82-6.23,6.02-9.58,7.04-3.63,1.15-11.19-3.27-13.09-4.14-1.87-.88-1.63-3.9-1.63-3.9l-1.45-4.87c2.51-.76,3.96-1.66,3.96-1.66l.15.06c1.3-3.78,4.23-8.46,10.82-10.43,2.66-.82,5.93-1.18,9.92-.85Z"/><path class="cls-1" d="M295.74,264.51c-.88-19.53-3.36-33.16-3.36-33.16l-.42-2.75s2.06-2.87,2.21-14l.39-2.84c1.09.15,2,.33,2.6.57,0,0,11.97,31.74,15,38.3l.39,1.36c-6.59,1.96-9.52,6.65-10.82,10.43l-.15-.06s-1.45.91-3.96,1.66c-.58.18-1.21.33-1.88.48Z"/><path class="cls-2" d="M294.17,143.92c-.27-2.39-2.15-6.92-6.44-9.55-4.14-2.57-6.62-13.73-6.8-14.51,3.08.24,6.02.63,8.77,1.03,7.26,37.7,29.42,46.1,29.42,46.1-11.76,16.23-31.2,24.61-49.49,28.9.03-2.54.45-4.35,1.6-4.72,31.38-13.73,23.19-44.86,22.95-47.25Z"/><polygon class="cls-7" points="276.7 237.6 279.57 278.36 263.88 273.58 271.26 253.02 259.77 273.28 246.1 269.26 276.7 237.6"/><path class="cls-9" d="M273.71,132.82c.73,1.96.57,3.81-.36,4.17-.94.33-2.24-.97-2.99-2.93-.72-1.96-.57-3.81.36-4.17.94-.33,2.27.97,2.99,2.93Z"/><path class="cls-2" d="M280.93,119.85c-14.03-1.21-31.41-.42-48.82,6.32-2.45-8.31-6.8-19.68-6.8-19.68,0,0-.06,17.29.97,21.55-1.66,1.57-8.74,9.31-11.28,13.06-.39.51-.67.97-.82,1.33-.79-8.95,1.39-26.72,4.14-32.02l-7.38-.03c1.6-2.9,2.81-4.66,3.08-4.87,1.09-.91,3.81-.91,3.81-.91l3.54-5.17c-.33-1.24-.6-2.78-.21-3.81.76-1.97,53.48-27.09,89.94,30.53,0,0-8.43-3.27-21.4-5.29-2.75-.39-5.68-.79-8.77-1.03Z"/><polygon class="cls-7" points="270.77 279.08 267.14 288.27 264.88 277.08 270.77 279.08"/><path class="cls-1" d="M271.32,209.04h-.09c-.27-1.57-.57-3.21-.82-4.81.88-.15,3.72,3.05,5.74,6.83.36,3.02-1.15,22.16-11.73,22.16s-21.52-17.99-22.95-22.67c1.09-5.14,5.44-4.72,5.86-4.66.12,1.18.21,2.42.27,3.72,2.39,3.81,9.64,14.24,15.42,12.27,5.29-1.78,7.53-9.25,8.28-12.85Z"/><path class="cls-2" d="M231.96,185.67c.36.3,6.41,5.44,12.46,7.13,0,0,1.03,2.45,1.91,6.74-.82.09-1.63.15-2.42.21,0,0-.24,0-.63.03-2.96.12-15.57.48-19.02-1.94-3.08-3.08,1.69-8.01,7.71-12.18Z"/><path class="cls-9" d="M238.39,136.51c-.85-2.24-.63-4.35.39-4.75,1.06-.39,2.57,1.09,3.45,3.33.79,2.24.6,4.35-.45,4.75-1.06.39-2.57-1.12-3.39-3.33Z"/><path class="cls-3" d="M238.79,131.76c-1.03.39-1.24,2.51-.39,4.75.82,2.21,2.33,3.72,3.39,3.33,1.06-.39,1.24-2.51.45-4.75-.88-2.24-2.39-3.72-3.45-3.33ZM270.35,134.06c.76,1.96,2.06,3.27,2.99,2.93.94-.36,1.09-2.21.36-4.17-.73-1.97-2.06-3.27-2.99-2.93-.94.36-1.09,2.21-.36,4.17ZM232.11,126.17c17.41-6.74,34.8-7.53,48.82-6.32.18.79,2.66,11.94,6.8,14.51,4.29,2.63,6.17,7.16,6.44,9.55.24,2.39,8.43,33.53-22.95,47.25-1.15.36-1.57,2.18-1.6,4.72,0,2.33.33,5.32.79,8.34.24,1.6.54,3.24.82,4.81h.09c-.76,3.6-2.99,11.06-8.28,12.85-5.77,1.96-13.03-8.46-15.42-12.27-.06-1.3-.15-2.54-.27-3.72-.27-2.42-.63-4.54-1.03-6.35-.88-4.29-1.91-6.74-1.91-6.74-6.05-1.69-12.09-6.83-12.46-7.13,5.26-3.72,11.49-6.83,14.09-7.62-25.82-11.94-30.62-36.64-30.62-36.64l-.42-.3c2.54-3.75,9.61-11.49,11.28-13.06-1.03-4.26-.97-21.55-.97-21.55,0,0,4.35,11.37,6.8,19.68Z"/><path class="cls-1" d="M264.88,277.08l2.27,11.19,3.63-9.19-5.9-2ZM295.74,264.51c.24,5.02.36,10.43.3,16.08,2.51,24.94,5.38,38.94,5.53,39.42-4.41,2.54-19.14,12.21-27.84,12.73-8.68.51-27.57-4.78-39.18-12.97,2.78-9.58,4.81-12.49,4.56-19.89-.27-7.44-5.56-39.21-9.04-44.17,1.48-7.71,4.29-22.13,4.75-23.85l-.45-6.68c-1.84-12.45-11.37-14.57-11.37-14.57l-.06-2.33c5.84-.3,18.53,2.27,18.53,2.27,1.42,4.69,12.36,22.67,22.95,22.67s12.09-19.14,11.73-22.16c0,0,12.3-.18,18.41.7l-.39,2.84c-.15,11.12-2.21,14-2.21,14l.42,2.75s2.48,13.63,3.36,33.16ZM279.57,278.36l-2.87-40.75-30.59,31.65,13.67,4.02,11.49-20.25-7.38,20.56,15.69,4.78Z"/><path class="cls-1" d="M223.01,210.61s9.52,2.12,11.37,14.57l.45,6.68c-.45,1.72-3.26,16.14-4.75,23.85-.57,2.9-.94,4.87-.94,4.87-1.66.54-3.26.88-4.78,1.03-6.38.54-11.52-2.3-15.42-5.9-4.5-4.14-7.38-9.34-8.65-11.64,6.5-4.29,18.02-32.62,19.92-35.04.36-.45,1.36-.7,2.72-.76l.06,2.33Z"/><path class="cls-3" d="M223.82,297.92c1.69,1.15,1.96,5.29,1.12,6.62-.85,1.33-2.93,3.78-6.23,3.48-3.33-.27-5.23-1.81-5.23-1.81,1.18-1.42,3.36-4.35,4.29-5.71l1.18.21.7.15c1.12-1.51,3.02-3.69,4.17-2.93Z"/><path class="cls-2" d="M231.96,185.67c-6.02,4.17-10.79,9.1-7.71,12.18,3.45,2.42,16.05,2.06,19.02,1.94-11.43.82-19.29.33-19.29.33,0,0-18.38-18.26-22.86-43.05-3.36-18.65,5.02-37.94,9.83-46.68l7.38.03c-2.75,5.29-4.93,23.07-4.14,32.02.15-.36.42-.82.82-1.33l.42.3s4.81,24.7,30.62,36.64c-2.6.79-8.83,3.9-14.09,7.62Z"/><path class="cls-3" d="M210.22,299.09l7.56,1.39c-.94,1.36-3.11,4.29-4.29,5.71-.36.45-.63.76-.73.79-.48.18-1.69,2.03-4.26,1.06-2.54-.97-4.17-2.66-3.99-3.02l-.03-.03c.7-.55,1.48-1.27,2.51-2.09,1.18-.91,2.42-2.33,3.23-3.81Z"/><path class="cls-3" d="M217.38,295.16c2.27,1.33,1.39,3.69.76,4.75-.09.12-.21.3-.36.57l-7.56-1.39c.18-.3.33-.6.45-.91,0,0,4.44-4.32,6.71-3.02Z"/><path class="cls-3" d="M201.88,297.43c2.39-1.9,6.8-4.99,8.43-3.3,1,1.09.97,2.57.36,4.05-.12.3-.27.6-.45.91l-8.22-1.51-.12-.15Z"/><path class="cls-3" d="M220.71,272.52c2.06,5.83-4.02,13.82-6.59,16.02,1.72,2.27,1.6,5.14,3.26,6.62-2.27-1.3-6.71,3.02-6.71,3.02.6-1.48.63-2.96-.36-4.05-1.63-1.69-6.05,1.39-8.43,3.3l.12.15,8.22,1.51c-.82,1.48-2.06,2.9-3.23,3.81-1.03.82-1.81,1.54-2.51,2.09-1.03.91-1.93,1.45-3.36,1.33-2.36-.18-3.87-.57-4.41-1.78-.58-1.24,1.12-6.05,1.12-6.05l-2.36-6.14s-7.86,4.08-10.49,2.54c-2.63-1.51,6.62-9.92,8.98-10.4,1.75-.33,4.41-.48,5.65-.51v-.03c.7-8.89,3.66-12.88,6.23-14.66l-.06-.09,3.17-13.48c3.9,3.6,9.04,6.44,15.42,5.9v.06l-3.02,10.58-.63.27Z"/><line class="cls-4" x1="208.95" y1="255.71" x2="205.78" y2="269.2"/><path class="cls-4" d="M209.83,267.77c-.09,0-1.9.03-3.99,1.51-2.57,1.78-5.53,5.77-6.23,14.66"/><path class="cls-4" d="M222.1,101.59s-.39-.94-.73-2.15c-.33-1.24-.6-2.78-.21-3.81.76-1.97,53.48-27.09,89.94,30.53,0,0-8.43-3.27-21.4-5.29-2.75-.39-5.68-.79-8.77-1.03-14.03-1.21-31.41-.42-48.82,6.32-2.45-8.31-6.8-19.68-6.8-19.68,0,0-.06,17.29.97,21.55-1.66,1.57-8.74,9.31-11.28,13.06-.39.51-.67.97-.82,1.33-.79-8.95,1.39-26.72,4.14-32.02"/><path class="cls-4" d="M269.08,196c.18-.03.36-.09.54-.12,18.29-4.29,37.73-12.67,49.49-28.9,0,0-22.16-8.4-29.42-46.1"/><path class="cls-4" d="M243.9,199.75c.79-.06,1.6-.12,2.42-.21.15,0,.33-.03.48-.03"/><path class="cls-4" d="M221.37,99.45l-3.54,5.17s-2.72,0-3.81.91c-.27.21-1.48,1.97-3.08,4.87-4.81,8.74-13.18,28.02-9.83,46.68,4.47,24.79,22.86,43.05,22.86,43.05,0,0,7.86.48,19.29-.33"/><path class="cls-4" d="M215.42,141.41s4.81,24.7,30.62,36.64c-2.6.79-8.83,3.9-14.09,7.62-6.02,4.17-10.79,9.1-7.71,12.18,3.45,2.42,16.05,2.06,19.02,1.94.39-.03.63-.03.63-.03"/><path class="cls-4" d="M280.93,119.82v.03c.18.79,2.66,11.94,6.8,14.51,4.29,2.63,6.17,7.16,6.44,9.55.24,2.39,8.43,33.53-22.95,47.25-1.15.36-1.57,2.18-1.6,4.72,0,2.33.33,5.32.79,8.34.24,1.6.54,3.24.82,4.81"/><path class="cls-4" d="M231.92,185.64l.03.03c.36.3,6.41,5.44,12.46,7.13,0,0,1.03,2.45,1.91,6.74.39,1.81.76,3.93,1.03,6.35.12,1.18.21,2.42.27,3.72.03.09.03.18.03.27"/><path class="cls-4" d="M267.08,180.19s-3.66,4.17-8.07,1.03"/><path class="cls-4" d="M247.37,205.89h-.03c-.42-.06-4.78-.48-5.86,4.66,1.42,4.69,12.36,22.67,22.95,22.67s12.09-19.14,11.73-22.16c-2.03-3.78-4.87-6.98-5.74-6.83"/><path class="cls-4" d="M246.8,208.28s.3.51.82,1.33c2.39,3.81,9.64,14.24,15.42,12.27,5.29-1.78,7.53-9.25,8.28-12.85.27-1.21.36-2,.36-2"/><path class="cls-4" d="M241.48,210.55s-12.7-2.57-18.53-2.27c-1.36.06-2.36.3-2.72.76-1.9,2.42-13.42,30.75-19.92,35.04,1.27,2.3,4.14,7.5,8.65,11.64,3.9,3.6,9.04,6.44,15.42,5.9,1.51-.15,3.11-.48,4.78-1.03,0,0,.36-1.96.94-4.87,1.48-7.71,4.29-22.13,4.75-23.85"/><path class="cls-4" d="M276.15,211.06s12.3-.18,18.41.7c1.09.15,2,.33,2.6.57,0,0,11.97,31.74,15,38.3"/><path class="cls-4" d="M300.7,267.87s0-2.42,1.03-5.44c1.3-3.78,4.23-8.46,10.82-10.43,2.66-.82,5.93-1.18,9.92-.85"/><path class="cls-4" d="M301.58,262.36s-1.45.91-3.96,1.66c-.58.18-1.21.33-1.88.48-.15.03-.3.06-.45.09"/><path class="cls-4" d="M297.62,264.03l1.45,4.87s-.24,3.02,1.63,3.9c1.9.88,9.46,5.29,13.09,4.14,3.36-1.03,8.74-6.23,9.58-7.04l.12-.12"/><path class="cls-4" d="M324.22,253.14s.27-1.78.76-3.42c.3-.94.63-1.81,1.06-2.27,1.12-1.24,11.82-3.63,11.82-3.63,0,0-4.14,3.63,1.39-.63,5.56-4.29,13.06-2.39,13.06-2.39,0,0,1.3.6-2.84,3.39-4.17,2.78-7.56,6.35-7.56,6.35l-1.03,4.11s1.48,1.12,3.93,1.42"/><path class="cls-4" d="M324.98,249.73s-1.18.48-2.51,1.42c-1.45,1.06-3.08,2.66-3.63,4.93-1,4.14-1.87,11.64,4.54,13.82.27.09.54.18.85.24"/><path class="cls-4" d="M343.33,259.46s.39-1.84,1.69-3.17c.85-.88,2.09-1.54,3.87-1.36,3.63.39,2.36,2.66,2,3.51,0,0-1.63,3.29-1.42,4.62.15,1.33-4.93,2.51-5.62.97"/><path class="cls-4" d="M337.13,262.67c.03-.21,1.6-4.72,4.14-4.08,2.06.48,2.9,2.48,2.27,5.38-.15.7-.39,1.48-.76,2.3-.94,2.09-2.12,2.66-3.39,2.42-1-.18-2.54-1.06-3.72-1.75-.33-.18-.63-.36-.88-.51"/><path class="cls-4" d="M335.32,260.94s1.15-.75,2.03-.3"/><path class="cls-4" d="M335.68,266.93s-2.57,2.33-3.81,2.45"/><path class="cls-4" d="M331.69,269.41c.18.85.18,1.45.18,1.45,0,0,.91,4.02-3.05,4.11-3.93.09-4.2-2.48-4.11-3.26,0-.03.03-.63.18-1.45.33-2.15,1.3-5.83,3.66-5.17,2.09.6,2.87,2.81,3.14,4.32Z"/><line class="cls-4" x1="224.37" y1="261.67" x2="221.34" y2="272.25"/><path class="cls-4" d="M218.71,302.18s.36-.58.94-1.33c1.12-1.51,3.02-3.69,4.17-2.93,1.69,1.15,1.96,5.29,1.12,6.62-.85,1.33-2.93,3.78-6.23,3.48-3.33-.27-5.23-1.81-5.23-1.81"/><path class="cls-4" d="M210.67,298.19s4.44-4.32,6.71-3.02c2.27,1.33,1.39,3.69.76,4.75-.09.12-.21.3-.36.57-.94,1.36-3.11,4.29-4.29,5.71-.36.45-.63.76-.73.79-.48.18-1.69,2.03-4.26,1.06-2.54-.97-4.17-2.66-3.99-3.02"/><path class="cls-4" d="M200.3,298.76s.64-.57,1.57-1.33c2.39-1.9,6.8-4.99,8.43-3.3,1,1.09.97,2.57.36,4.05-.12.3-.27.6-.45.91-.82,1.48-2.06,2.9-3.23,3.81-1.03.82-1.81,1.54-2.51,2.09-1.03.91-1.93,1.45-3.36,1.33-2.36-.18-3.87-.57-4.41-1.78-.58-1.24,1.12-6.05,1.12-6.05l-2.36-6.14s-7.86,4.08-10.49,2.54c-2.63-1.51,6.62-9.92,8.98-10.4,1.75-.33,4.41-.48,5.65-.51.42-.03.7-.03.7-.03"/><path class="cls-4" d="M292.39,231.35s2.48,13.63,3.36,33.16c.24,5.02.36,10.43.3,16.08,2.51,24.94,5.38,38.94,5.53,39.42-4.41,2.54-19.14,12.21-27.84,12.73-8.68.51-27.57-4.78-39.18-12.97,2.78-9.58,4.81-12.49,4.56-19.89-.27-7.44-5.56-39.21-9.04-44.17"/><path class="cls-4" d="M223.01,210.61s9.52,2.12,11.37,14.57"/><path class="cls-4" d="M291.96,228.59s2.06-2.87,2.21-14"/><path class="cls-4" d="M219.41,300.61c-.15.03-.3.06-.45.09-.12.03-.24.06-.39.09-.24.06-.54.09-.85.15"/><path class="cls-4" d="M234.37,131.7s-.09-3.2,1.9-4.26c2-1.03,4.44,0,4.44,0"/><path class="cls-4" d="M267.75,124.33s1.21-1.33,2.72-1.21c1.51.09,3.02,1.21,3.02,1.21"/><path class="cls-4" d="M242.23,135.09c.79,2.24.6,4.35-.45,4.75-1.06.39-2.57-1.12-3.39-3.33-.85-2.24-.63-4.35.39-4.75,1.06-.39,2.57,1.09,3.45,3.33Z"/><path class="cls-4" d="M273.71,132.82c.73,1.96.57,3.81-.36,4.17-.94.33-2.24-.97-2.99-2.93-.72-1.96-.57-3.81.36-4.17.94-.33,2.27.97,2.99,2.93Z"/><path class="cls-4" d="M259.95,138.11c1.09,2.27,2.03,2.57,3.54.76,1.51,2.84,2.18,5.68.76,7.47"/><path class="cls-4" d="M247.22,155.62s1.63,2.72,9.46,2.15l12.12-1.03s3.93-.57,4.69-3.02"/><path class="cls-5" d="M219.53,270.43c.54.63.94,1.33,1.18,2.09,2.06,5.83-4.02,13.82-6.59,16.02,1.72,2.27,1.6,5.14,3.26,6.62"/><path class="cls-5" d="M206.41,285.49c2.42.27,6.26,2.45,7.71,3.05"/><path class="cls-8" d="M194.84,244.18c.23-.47.61-.47.85,0l6.33,12.81c.23.47.85.92,1.37,1l14.14,2.06c.52.08.64.44.26.81l-10.23,9.97c-.38.37-.61,1.09-.52,1.61l2.42,14.08c.09.52-.22.74-.69.5l-12.65-6.65c-.47-.25-1.23-.25-1.7,0l-12.65,6.65c-.47.25-.78.02-.69-.5l2.41-14.08c.09-.52-.15-1.25-.52-1.61l-10.23-9.97c-.38-.37-.26-.73.26-.81l14.14-2.06c.52-.08,1.14-.52,1.37-1l6.32-12.81Z"/><path class="cls-6" d="M194.84,244.18c.23-.47.61-.47.85,0l6.33,12.81c.23.47.85.92,1.37,1l14.14,2.06c.52.08.64.44.26.81l-10.23,9.97c-.38.37-.61,1.09-.52,1.61l2.42,14.08c.09.52-.22.74-.69.5l-12.65-6.65c-.47-.25-1.23-.25-1.7,0l-12.65,6.65c-.47.25-.78.02-.69-.5l2.41-14.08c.09-.52-.15-1.25-.52-1.61l-10.23-9.97c-.38-.37-.26-.73.26-.81l14.14-2.06c.52-.08,1.14-.52,1.37-1l6.32-12.81Z"/><path class="cls-8" d="M345.22,193.52c.23-.47.61-.47.85,0l6.33,12.81c.23.47.85.92,1.37,1l14.14,2.06c.52.08.64.44.26.81l-10.23,9.97c-.38.37-.61,1.09-.52,1.61l2.42,14.08c.09.52-.22.74-.69.5l-12.65-6.65c-.47-.25-1.23-.25-1.7,0l-12.65,6.65c-.47.25-.78.02-.69-.5l2.41-14.08c.09-.52-.15-1.25-.52-1.61l-10.23-9.97c-.38-.37-.26-.73.26-.81l14.14-2.06c.52-.08,1.14-.52,1.37-1l6.32-12.81Z"/><path class="cls-6" d="M345.22,193.52c.23-.47.61-.47.85,0l6.33,12.81c.23.47.85.92,1.37,1l14.14,2.06c.52.08.64.44.26.81l-10.23,9.97c-.38.37-.61,1.09-.52,1.61l2.42,14.08c.09.52-.22.74-.69.5l-12.65-6.65c-.47-.25-1.23-.25-1.7,0l-12.65,6.65c-.47.25-.78.02-.69-.5l2.41-14.08c.09-.52-.15-1.25-.52-1.61l-10.23-9.97c-.38-.37-.26-.73.26-.81l14.14-2.06c.52-.08,1.14-.52,1.37-1l6.32-12.81Z"/><path class="cls-8" d="M294.22,30.07c.23-.47.61-.47.85,0l6.33,12.81c.23.47.85.92,1.37,1l14.14,2.06c.52.08.64.44.26.81l-10.23,9.97c-.38.37-.61,1.09-.52,1.61l2.42,14.08c.09.52-.22.74-.69.5l-12.65-6.65c-.47-.25-1.23-.25-1.7,0l-12.65,6.65c-.47.25-.78.02-.69-.5l2.41-14.08c.09-.52-.15-1.25-.52-1.61l-10.23-9.97c-.38-.37-.26-.73.26-.81l14.14-2.06c.52-.08,1.14-.52,1.37-1l6.32-12.81Z"/><path class="cls-6" d="M294.22,30.07c.23-.47.61-.47.85,0l6.33,12.81c.23.47.85.92,1.37,1l14.14,2.06c.52.08.64.44.26.81l-10.23,9.97c-.38.37-.61,1.09-.52,1.61l2.42,14.08c.09.52-.22.74-.69.5l-12.65-6.65c-.47-.25-1.23-.25-1.7,0l-12.65,6.65c-.47.25-.78.02-.69-.5l2.41-14.08c.09-.52-.15-1.25-.52-1.61l-10.23-9.97c-.38-.37-.26-.73.26-.81l14.14-2.06c.52-.08,1.14-.52,1.37-1l6.32-12.81Z"/></svg>