<?xml version="1.0" encoding="UTF-8"?><svg id="Layer_2" xmlns="http://www.w3.org/2000/svg" viewBox="0 0 346.32 235.44" width="346.32" height="235.44"><defs><style>.cls-1{fill:#e1c0a5;}.cls-2{fill:#010101;}.cls-3{fill:#b32a2e;}.cls-4{fill:#fed20b;}.cls-5{fill:#fff;}.cls-6,.cls-7{stroke-width:1.59px;}.cls-6,.cls-7,.cls-8,.cls-9{fill:none;stroke:#231f20;}.cls-6,.cls-8,.cls-9{stroke-miterlimit:10;}.cls-7{stroke-linecap:round;stroke-linejoin:round;}.cls-10{fill:#977346;}.cls-8{stroke-width:5.38px;}.cls-9{stroke-width:5.63px;}.cls-11{fill:#7b7b7b;}</style></defs><path class="cls-1" d="M38.48,84.39c-2.23-1.84-3.8-2.98-4.29-2.87-.07.02-.14.03-.21.05,0,.02.02.03.04.04.99,1.09,2.63,2.05,4.46,2.78Z"/><path class="cls-2" d="M34.67,50c-1,.11-1.68,1.39-1.53,2.86.16,1.48,1.09,2.57,2.09,2.47.99-.1,1.68-1.38,1.52-2.86-.16-1.47-1.09-2.57-2.08-2.47Z"/><path class="cls-4" d="M38.48,84.39c-1.83-.73-3.47-1.69-4.46-2.78,1.17,1.37,2.76,2.39,4.71,2.98-.09-.07-.16-.14-.25-.2Z"/><path class="cls-1" d="M34.12,76.69c-.16,2.25-.35,4.64-.35,4.64.07.08.13.16.2.23.07-.02.14-.04.21-.05.49-.1,2.06,1.03,4.29,2.87.44.18.89.34,1.36.49.02.02.05.02.07.02,2.25.47,4.89.43,7.84-.22.16-.26.27-.99.3-1.97,0,0,0-.02,0-.03-.16-1.53-.45-3.19-.38-4.6h0c-2.61-.2-6.08-1.03-8.97-2.27-1.07-.46-2.7-1.38-4.29-1.85h0c-4,1.94-8.31,3.65-12.68,5.43,4.15-.55,8.2-1.89,12.33-2.7h.07Z"/><path class="cls-4" d="M47.75,84.68c-2.95.65-5.59.69-7.84.22,3.2,1.03,6.65,1.31,8.22.28.08-.72.03-1.58-.07-2.47-.03.98-.14,1.71-.3,1.97Z"/><path class="cls-4" d="M50.78,85.47c.26-1.1-.43-2.27-2.66-3.1h-.06c0,.1,0,.21,0,.31,0,0,0,.02,0,.03.1.89.16,1.76.07,2.47-1.58,1.02-5.02.75-8.22-.28-.02,0-.05,0-.07-.02-.38-.07-.76-.17-1.11-.29,1.2,1,2.56,2.18,4.06,3.48l.08-.09c3.32,1.5,7.41-.37,7.91-2.52Z"/><path class="cls-5" d="M54.73,64.46c-4.53,1.4-8.39,1.05-13.67.38,3.99,9.72,13.47,6.76,13.67-.38Z"/><path class="cls-4" d="M33.97,81.57c-20.9,4.7,3.28,55.23,7.54,65.58,5.14,12.46,5.87,13.57,5.87,13.57.79-.31,1.72-.66,2.74-1.08,1.06-.43,2.22-.9,3.46-1.42,5.63-2.35,12.85-5.58,18.76-8.86,5.9-3.28,10.51-6.61,10.96-9.17,0,0-5.17-10.49-6.71-13.08l.32-1.24c-8.73-2.29-16.27-3.41-23.68-8.52l-.28-.12c2.2-5.49,4.67-6.21,7.94-9.9.59-.66,1.22-1.43,1.87-2.34-5.73-4.13-13.86-11.52-20-16.91-1.5-1.3-2.86-2.48-4.06-3.48-1.94-.59-3.54-1.6-4.71-2.98-.02-.02-.04-.02-.04-.04Z"/><path class="cls-4" d="M50.78,85.47c-.5,2.15-4.6,4.02-7.91,2.52l-.08.09c6.14,5.39,14.27,12.78,20,16.91-.65.92-1.28,1.68-1.87,2.34,2.09.54,3.97,1.24,5.73,2.07l.18-.37c-2.58-8.82-9.98-15.64-13.94-22.75l-2.1-.81Z"/><path class="cls-2" d="M56.17,53.19c.86-.09,1.42-1.46,1.25-3.06-.17-1.6-1.01-2.81-1.86-2.73-.86.09-1.41,1.46-1.24,3.06.17,1.6,1,2.83,1.85,2.73Z"/><path class="cls-1" d="M41.06,64.84c5.29.67,9.15,1.02,13.67-.38-.2,7.14-9.68,10.1-13.67.38ZM57.42,50.13c.17,1.6-.4,2.97-1.25,3.06-.86.1-1.68-1.13-1.85-2.73-.17-1.6.39-2.96,1.24-3.06.86-.08,1.69,1.13,1.86,2.73ZM33.14,52.86c-.16-1.47.53-2.75,1.53-2.86.99-.1,1.93,1,2.08,2.47.16,1.48-.53,2.76-1.52,2.86-1,.11-1.94-.99-2.09-2.47ZM37.93,72.17c-1.14.62-2.32,1.22-3.52,1.79,1.6.47,3.22,1.39,4.29,1.85,2.89,1.24,6.36,2.07,8.97,2.26,1.46.1,2.65,0,3.3-.34.75-.4,1.79-1.06,2.93-1.86,3.32-2.33,7.57-5.85,8.8-7.85,4.42-7.28-.14-17.92-.23-19.75-.1-2.16,1.22-5.51,2.08-9.45v-.04c-9.05-1.14-21.31.12-27.08,2.4-1.97-4.3-4.47-9.41-5.58-13.92,0,5.2,1.13,9.7.78,14.68-2.48.97-4.94,1.91-7.34,2.81l.1.27c1.52,13.17,3.81,19.1,12.49,27.15Z"/><path class="cls-10" d="M72.78,69.27c-5.2-7.14-7.8-21.63-7.18-30.3v-.04c-.33-.05-.68-.1-1.03-.15v.04c-.87,3.94-2.19,7.29-2.09,9.45.09,1.83,4.65,12.48.23,19.75-1.23,2-5.48,5.52-8.8,7.85,7.06-1.21,12.56-3.21,18.87-6.61Z"/><path class="cls-4" d="M47.99,80.42c.05.69.07,1.35.07,1.94h.06c2.23.83,2.92,2,2.66,3.1l2.1.81c3.96,7.1,11.37,13.93,13.94,22.75l-.18.37c.39.17.79.37,1.17.56l.11-.21c-.31-1.19,1.07-8.3,3.93-10.94.38-.34.77-.61,1.2-.79-5.87-5.14-18.7-19.06-24.94-17.61h-.13Z"/><path class="cls-11" d="M50.13,159.64c-1.02.41-1.95.77-2.74,1.08.73,5.88,20.82,12.87,32.63,15.4.02-1.25-.03-1.97-.03-2.45-4.79-1.06-25.76-10.25-29.67-13.55l-.19-.47Z"/><path class="cls-11" d="M53.59,158.22c-1.25.52-2.41.99-3.46,1.42l.19.47c3.91,3.3,24.88,12.49,29.67,13.55,0-.79.1-.88.75-1.6.32-.36.77-.87,1.41-1.71-11.33-3.29-18.64-6.58-28.53-12.07l-.03-.07Z"/><path class="cls-10" d="M28.08,18.95c-10.07-.62-14.6,11.74-16.7,18.05-3.41,10.25-1.88,19.84,3.86,33.43,1.51,3.56,3.56,6.12,5.54,9.34.31-.13.63-.25.94-.38,4.37-1.77,8.68-3.49,12.68-5.43h0c1.2-.57,2.38-1.17,3.52-1.79-8.68-8.05-10.97-13.98-12.49-27.15l-.1-.27c2.4-.9,4.87-1.84,7.34-2.81.35-4.99-.78-9.49-.78-14.68,1.11,4.51,3.61,9.62,5.58,13.92,5.78-2.27,18.03-3.54,27.09-2.4.35.04.7.09,1.04.15,2.66.4,4.99,1.02,6.74,1.91-4.33-17.18-18.44-27.57-39.51-25.35-2.81.04-4.76,3.47-4.76,3.47Z"/><path class="cls-11" d="M92.42,161.85c-2.46-1.91-14.53-11.13-20.07-12.5-5.91,3.28-13.13,6.52-18.76,8.86l.03.07c9.88,5.49,17.2,8.78,28.53,12.07.03-.03.05-.06.08-.1,1.99-2.65,8.54-5.39,10.31-7.56-.15-.18-.29-.36-.44-.52.11-.11.21-.22.33-.33Z"/><path class="cls-3" d="M125.05,207.03l-1.04-.11c-4.71,1.26-11.63.34-16.93-1.47-1.06.18-2.56-.09-3.79-.65l.19-.44c-.82-1.42-1.82-2.89-2.97-4.38-2.72.82-.74,6.94.4,10.25.68,1.95,1.15,3.28,1.79,4.22,1.22,1.8,3.06,2.13,8.11,2.4,2.97.16,8.91.24,14.39-.48l-.09-.65c-.77-3.67-.84-6.42-.07-8.69Z"/><path class="cls-1" d="M80.75,172.1c1.32,8.61,12.89,18.82,19.76,27.88,1.15,1.49,2.15,2.96,2.97,4.38l-.19.44c1.23.56,2.73.83,3.79.65-.13-.04-.27-.09-.39-.14l.09-.24c-.69-2.91-1.26-8.1,3.62-9.32-1.4-6.09-12.52-26.64-17.89-33.06-1.77,2.17-8.31,4.9-10.31,7.56-.03.03-.05.06-.08.1-.64.85-1.1,1.36-1.41,1.71l.02.03Z"/><path class="cls-11" d="M104.82,155.44c.56.11,1.14.27,1.73.52-5.63-6.84-13.69-10.27-23.23-15.77-.45,2.56-5.06,5.89-10.96,9.17,5.54,1.37,17.61,10.59,20.07,12.5,3.53-3.6,7.48-7.38,12.4-6.42Z"/><path class="cls-3" d="M124.02,206.92l1.04.11c.65-1.96,1.93-3.56,3.89-5.07-4.15.06-8.7.69-11.07-.62-2.81-1.57-2.47-4.13-3.73-5.27-.58-.52-1.5-.74-3.22-.43-.17.03-.35.07-.51.11-4.88,1.22-4.31,6.41-3.62,9.32l-.09.24c.12.05.26.09.39.14,5.3,1.81,12.22,2.73,16.93,1.47Z"/><path class="cls-1" d="M108.62,129.19c0-2.58-1.85-.54-7.03-4.41,1.25-1.22,1.83-2.77,2.56-3.85.1-.15.21-.3.32-.43-7.95-1.96-11.98,2.81-23.94-3.2-4.67-2.34-8.38-5.15-12.71-7.35-.38-.19-.78-.38-1.17-.56-1.76-.83-3.64-1.54-5.73-2.07-3.27,3.68-5.75,4.41-7.94,9.9l.28.12c7.41,5.11,14.95,6.24,23.68,8.52,2.51.67,5.12,1.42,7.85,2.4,6.55,2.35,20.91,7.89,23.83.93Z"/><path class="cls-1" d="M114.14,196.07l.9-.18c-.07-.15-.12-.3-.18-.45-1.52-4.05-.11-9.01,2.3-9.64l-.1-.51c-1.47-4.76-2.15-5.82-3.67-9.84-2.36-6.24-5.36-16.77-8.57-20.01-4.91-.96-8.87,2.82-12.4,6.42.29.22.44.34.44.34-.07.17-.19.34-.33.51,5.36,6.42,16.48,26.97,17.89,33.06.16-.05.34-.08.51-.11,1.72-.31,2.64-.09,3.22.43Z"/><path class="cls-3" d="M130.62,198.49c-.37.42-13.19,1.84-15.03-3.31l-.73.25c.06.15.11.3.18.45l-.9.18c1.25,1.14.91,3.69,3.73,5.27,2.37,1.31,6.92.69,11.07.62.83,0,1.63,0,2.41.05-.16-1.09-.19-2.32-.07-3.57l-.66.04Z"/><path class="cls-1" d="M110.45,126.61c-.73,6.59,12.85,7.57,12.47.73-.06-1.07-1.53-1.85-3.46-2.26-.17.03-.37.06-.57.07.01-.06.03-.12.04-.17-3.29-.59-7.56-.16-8.48,1.63Z"/><path class="cls-1" d="M104.96,121.48c6.48-.58,15.21-1.81,13.97,3.5.18.03.36.06.53.1,8.55-1.33-.93-16.52-11.21-6.1-9.03-.77-18.97-7.57-26.65-13.63-3.74-2.93-7.66-2.44-9.75-6.54-2.86,2.64-4.25,9.75-3.93,10.94l-.11.21c4.33,2.2,8.04,5.01,12.71,7.35,11.96,6.01,15.99,1.24,23.94,3.2-.11.13-.22.28-.32.43l.82.55Z"/><path class="cls-3" d="M134.64,190.84c-5.37.4-11.01,1.12-13.91-2.98-1.27-1.8-2.51-2.34-3.57-2.06-2.41.64-3.82,5.59-2.3,9.64l.73-.25c1.83,5.14,14.66,3.73,15.03,3.31l.66-.04c.26-3.18,1.39-6.44,3.36-7.61Z"/><path class="cls-3" d="M137.23,210.22c-.57,3.63-6.03,5.36-12.01,6.14-5.49.72-11.42.64-14.39.48-5.05-.27-6.89-.6-8.11-2.4l-1.05.18c.36,7.71,16.5,5.5,23.83,4.78,4.17-.4,8.2-.8,11.28-3.76,2.88-2.81,3.4-7.25,1.56-8.72h-.7c.04.93-.08,2.02-.4,3.31Z"/><path class="cls-3" d="M125.13,215.72l.09.65c5.98-.78,11.44-2.51,12.01-6.14.32-1.28.44-2.38.4-3.3-.17-3.62-2.86-4.68-6.28-4.91-.77-.06-1.58-.06-2.41-.05-1.96,1.51-3.24,3.11-3.89,5.07-.76,2.27-.7,5.02.07,8.69Z"/><path class="cls-3" d="M131.28,198.45c-.11,1.24-.09,2.48.07,3.57,3.42.23,6.11,1.29,6.28,4.91h.7c6.54-.54,13.93-5.49,9.54-10.27l-.14.02c-.17-1.09-.95-2.28-2.54-3.56l.1-.13c-2.45-2.56-6.47-2.46-10.65-2.15-1.97,1.17-3.1,4.43-3.36,7.61Z"/><path class="cls-7" d="M33.97,81.57c-20.9,4.7,3.28,55.23,7.54,65.58,5.14,12.46,5.87,13.57,5.87,13.57.79-.31,1.72-.66,2.74-1.08,1.06-.43,2.22-.9,3.46-1.42,5.63-2.35,12.85-5.58,18.76-8.86,5.9-3.28,10.51-6.61,10.96-9.17,0,0-5.17-10.49-6.71-13.08"/><path class="cls-7" d="M48.12,80.41c6.24-1.46,19.07,12.47,24.94,17.61-.42.17-.82.44-1.2.79-2.86,2.64-4.25,9.75-3.93,10.94"/><path class="cls-7" d="M38.72,84.59c1.2,1,2.56,2.18,4.06,3.48,6.14,5.39,14.27,12.78,20,16.91-.65.92-1.28,1.68-1.87,2.34-3.27,3.68-5.75,4.41-7.94,9.9-.41,1-.8,2.16-1.18,3.52-6.09-6.67-9.45-7.62-15.4-14.3"/><path class="cls-7" d="M52.88,86.28c3.96,7.1,11.37,13.93,13.94,22.75"/><path class="cls-7" d="M47.39,160.72c.73,5.88,20.82,12.87,32.63,15.4.02-1.25-.03-1.97-.03-2.45,0-.79.1-.88.75-1.6.32-.36.77-.87,1.41-1.71.03-.03.05-.06.08-.1,1.99-2.65,8.54-5.39,10.31-7.56.14-.17.26-.34.33-.51,0,0-.15-.12-.44-.34-2.46-1.91-14.53-11.13-20.07-12.5,0,0-.03,0-.04,0"/><path class="cls-7" d="M83.32,140.18c9.54,5.5,17.6,8.93,23.23,15.77-.59-.24-1.17-.41-1.73-.52-4.91-.96-8.87,2.82-12.4,6.42-.12.11-.22.22-.33.33-.49.5-.97,1-1.44,1.47"/><path class="cls-7" d="M80.75,172.1c1.32,8.61,12.89,18.82,19.76,27.88,1.15,1.49,2.15,2.96,2.97,4.38"/><path class="cls-7" d="M110.45,195.92s-.02-.11-.04-.16c-1.4-6.09-12.52-26.64-17.89-33.06-.15-.18-.29-.36-.44-.52-.25-.29-.49-.53-.71-.73"/><path class="cls-7" d="M104.59,155.21c.08.07.15.14.23.22,3.22,3.23,6.21,13.77,8.57,20.01,1.52,4.02,2.2,5.08,3.67,9.84"/><path class="cls-7" d="M53.25,117.34c7.41,5.11,14.95,6.24,23.68,8.52,2.51.67,5.12,1.42,7.85,2.4,6.55,2.35,20.91,7.89,23.83.93,0-2.58-1.85-.54-7.03-4.41,1.25-1.22,1.83-2.77,2.56-3.85.1-.15.21-.3.32-.43-7.95-1.96-11.98,2.81-23.94-3.2-4.67-2.34-8.38-5.15-12.71-7.35-.38-.19-.78-.38-1.17-.56-1.76-.83-3.64-1.54-5.73-2.07-.03,0-.06-.01-.09-.02"/><path class="cls-7" d="M71.83,98.75s.02.04.03.06c2.09,4.1,6.01,3.61,9.75,6.54,7.68,6.06,17.62,12.87,26.65,13.63,10.28-10.42,19.76,4.77,11.21,6.1-.17.03-.37.06-.57.07.01-.06.03-.12.04-.17,1.23-5.31-7.5-4.07-13.97-3.5"/><path class="cls-7" d="M110.45,126.61c-.73,6.59,12.85,7.57,12.47.73-.06-1.07-1.53-1.85-3.46-2.26-.17-.04-.35-.07-.53-.1-3.29-.59-7.56-.16-8.48,1.63"/><path class="cls-7" d="M39.84,84.88c-.47-.15-.92-.31-1.36-.49-1.83-.73-3.47-1.69-4.46-2.78"/><path class="cls-7" d="M48.05,82.71c.1.89.16,1.76.07,2.47-1.58,1.02-5.02.75-8.22-.28"/><path class="cls-7" d="M47.67,78.09c-.08,1.41.22,3.07.38,4.6"/><path class="cls-7" d="M72.35,40.83c-1.75-.89-4.08-1.51-6.74-1.91-.34-.05-.69-.1-1.04-.15-9.06-1.14-21.31.12-27.09,2.4-1.97-4.3-4.47-9.41-5.58-13.92,0,5.2,1.13,9.7.78,14.68-2.48.97-4.94,1.91-7.34,2.81-1.91.7-3.79,1.39-5.62,2.02-2.7-4.97-1.58-14.98,4.56-21.27"/><path class="cls-7" d="M32.84,15.48c21.07-2.22,35.18,8.17,39.51,25.35"/><path class="cls-7" d="M53.85,75.89s.04,0,.06,0c7.06-1.21,12.56-3.21,18.87-6.61-5.2-7.14-7.8-21.63-7.18-30.3"/><path class="cls-7" d="M34.41,73.96c1.2-.57,2.38-1.17,3.52-1.79-8.68-8.05-10.97-13.98-12.49-27.15"/><path class="cls-7" d="M32.84,15.48c-2.81.04-4.76,3.47-4.76,3.47-10.07-.62-14.6,11.74-16.7,18.05-3.41,10.25-1.88,19.84,3.86,33.43,1.51,3.56,3.56,6.12,5.54,9.34.31-.13.63-.25.94-.38,4.37-1.77,8.68-3.49,12.68-5.43"/><path class="cls-7" d="M64.56,38.82c-.86,3.94-2.18,7.29-2.08,9.45.09,1.83,4.65,12.48.23,19.75-1.23,2-5.48,5.52-8.8,7.85-1.15.8-2.18,1.45-2.93,1.86-.65.34-1.84.44-3.3.34-2.61-.19-6.08-1.02-8.97-2.26-1.07-.46-2.7-1.38-4.29-1.85h0"/><path class="cls-7" d="M57.83,44.92c-.79-1.95-2.64-1.33-3.08.01"/><path class="cls-7" d="M37.09,45.33c-1.48-1.2-3.51-1.06-4.99,1.35"/><path class="cls-7" d="M49.65,55.55c.89,1.77,1.4,2.92,3.42,1.91-.34,2.08-.87,2.52-2.45,3.63"/><path class="cls-7" d="M47.67,78.09c.15.77.26,1.58.32,2.34.05.69.07,1.35.07,1.94,0,.11,0,.22,0,.32,0,0,0,.02,0,.03-.03.98-.14,1.71-.3,1.97-2.95.65-5.59.69-7.84.22-.02,0-.05,0-.07-.02-.38-.07-.76-.17-1.11-.29-1.94-.59-3.54-1.6-4.71-2.98-.02-.02-.04-.02-.04-.04-.08-.07-.13-.15-.2-.23,0,0,.19-2.39.35-4.64.05-.64.09-1.26.12-1.81"/><path class="cls-7" d="M34.05,76.69c-4.13.81-8.18,2.15-12.33,2.7-.19.03-.4.05-.59.07"/><path class="cls-7" d="M54.31,50.46c.17,1.6,1,2.83,1.85,2.73.86-.09,1.42-1.46,1.25-3.06-.17-1.6-1.01-2.81-1.86-2.73-.86.09-1.41,1.46-1.24,3.06Z"/><path class="cls-7" d="M33.14,52.86c.16,1.48,1.09,2.57,2.09,2.47.99-.1,1.68-1.38,1.52-2.86-.16-1.47-1.09-2.57-2.08-2.47-1,.11-1.68,1.39-1.53,2.86Z"/><path class="cls-7" d="M55.57,64.19c-.28.1-.56.19-.84.28-4.53,1.4-8.39,1.05-13.67.38-.18-.02-.36-.05-.55-.07"/><path class="cls-7" d="M54.73,64.39s0,.05,0,.07c-.2,7.14-9.68,10.1-13.67.38-.04-.06-.05-.11-.08-.17"/><path class="cls-7" d="M106.79,205.08c-.69-2.91-1.26-8.1,3.62-9.32.16-.05.34-.08.51-.11,1.72-.31,2.64-.09,3.22.43,1.25,1.14.91,3.69,3.73,5.27,2.37,1.31,6.92.69,11.07.62.83,0,1.63,0,2.41.05,3.42.23,6.11,1.29,6.28,4.91.04.92-.08,2.02-.4,3.3"/><path class="cls-7" d="M145.29,192.99c-2.45-2.56-6.47-2.46-10.65-2.15-5.37.4-11.01,1.12-13.91-2.98-1.27-1.8-2.51-2.34-3.57-2.06-2.41.64-3.82,5.59-2.3,9.64.06.15.11.3.18.45.06.13.13.26.19.39"/><path class="cls-7" d="M100.55,199.96s-.03,0-.04.01c-2.72.82-.74,6.94.4,10.25.68,1.95,1.15,3.28,1.79,4.22,1.22,1.8,3.06,2.13,8.11,2.4,2.97.16,8.91.24,14.39-.48,5.98-.78,11.44-2.51,12.01-6.14"/><path class="cls-7" d="M144.56,192.62c.22.16.43.32.62.5,1.59,1.28,2.37,2.47,2.54,3.56.63,3.71-5.63,6.21-9.77,7.31"/><path class="cls-7" d="M101.66,214.62c.36,7.71,16.5,5.5,23.83,4.78,4.17-.4,8.2-.8,11.28-3.76,2.88-2.81,3.4-7.25,1.56-8.72"/><path class="cls-7" d="M147.86,196.66c4.39,4.77-3,9.73-9.54,10.26"/><path class="cls-7" d="M129.16,201.79c-.07.06-.15.11-.22.17-1.96,1.51-3.24,3.11-3.89,5.07-.76,2.27-.7,5.02.07,8.69"/><path class="cls-7" d="M136.86,190.43c-.83-.14-1.57.02-2.22.41-1.97,1.17-3.1,4.43-3.36,7.61-.11,1.24-.09,2.48.07,3.57,0,.05,0,.09.01.14"/><path class="cls-7" d="M106.05,205.08c.21.08.42.16.64.24.12.05.26.09.39.14,5.3,1.81,12.22,2.73,16.93,1.47"/><path class="cls-7" d="M115.59,195.18c1.83,5.14,14.66,3.73,15.03,3.31"/><path class="cls-7" d="M103.12,204.72c.06.02.11.06.18.08,1.23.56,2.73.83,3.79.65.02,0,.05,0,.07,0"/><path class="cls-6" d="M53.62,158.29c9.88,5.49,17.2,8.78,28.53,12.07.02,0,.05.01.07.02"/><path class="cls-6" d="M50.32,160.11c3.91,3.3,24.88,12.49,29.67,13.55,0,0,.02,0,.03,0"/><path class="cls-7" d="M42.86,87.99c3.32,1.5,7.41-.37,7.91-2.52.26-1.1-.43-2.27-2.66-3.1"/><line class="cls-9" x1="264.06" y1="135.39" x2="320.74" y2="139.5"/><line class="cls-9" x1="241.87" y1="133.73" x2="259.89" y2="135.39"/><line class="cls-9" x1="102.93" y1="123.58" x2="237.94" y2="132.96"/><path class="cls-8" d="M234.57,137.5c-20.93,2.83,17.72,9.27,47.98,10.97,31.56,1.77,70.85-1.77,46.69-7.43"/><path class="cls-2" d="M301.13,64.01c6.83,0,8.14.61,12.07,4.85,2.33,2.73,4.22,5.46,4.22,6.22s1.16,2.88,2.76,5c6.54,8.64,12.8,41.68,10.33,55.02-.73,4.4-1.46,11.67-1.46,16.06,0,10.46-2.32,17.59-13.23,40.63-8.44,17.73-19.34,23.79-31.55,17.43-14.25-7.58-22.54-18.04-25.15-32.28-.58-3.34-1.75-8.8-2.62-12.13-1.74-7.42-1.02-32.58,1.31-43.5,3.63-16.83,4.65-20.46,8.43-28.5,4.51-9.85,14.83-21.83,22.1-25.77,3.05-1.82,8.14-2.88,12.79-3.03ZM293.57,76.14c-4.21,0-14.1,11.52-19.34,22.74-5.09,10.61-10.61,36.07-10.61,49.11,0,10.31,5.38,33.35,9.01,38.05,8.14,10.76,22.25,14.7,29.23,8.03,2.04-1.96,5.67-8.94,8.14-15.61,2.62-6.67,5.24-13.49,5.96-15.16,2.27-5.2,3-16.52,4.07-23.5,1.75-12.89-.73-40.47-4.21-47.29-3.2-6.22-7.71-11.83-9.45-11.83-2.58,0-9.81-4.55-12.8-4.55Z"/><path class="cls-2" d="M249.35,207.74c-1.89,2.08-4.65,3.71-6.11,3.71-4.94,0-6.4-8.03-5.96-34.2,1.46-97.69,1.6-90.85-1.6-92.19-1.75-.59,3.05-18.44,4.07-19.18,1.02-.89,4.36-1.63,7.56-1.63s1.89,20.97,1.31,53.68c-.29,14.27-.87,28.25-1.31,31.08-1.16,7.88-1.16,42.97,0,44.76"/></svg>