<?xml version="1.0" encoding="UTF-8"?><svg id="Layer_2" xmlns="http://www.w3.org/2000/svg" viewBox="0 0 346.32 235.44" width="346.32" height="235.44"><defs><style>.cls-1{fill:#e1c0a5;}.cls-2{fill:#010101;}.cls-3{fill:#fcd10f;}.cls-4{stroke:#010101;}.cls-4,.cls-5{stroke-width:1.12px;}.cls-4,.cls-5,.cls-6{fill:none;}.cls-4,.cls-6{stroke-miterlimit:10;}.cls-7{fill:#fff;}.cls-5{stroke-linecap:round;stroke-linejoin:round;}.cls-5,.cls-6{stroke:#231f20;}.cls-8{fill:#977346;}.cls-6{stroke-width:4.83px;}</style></defs><path class="cls-1" d="M153.23,154.79c-.02.41-.04.82-.08,1.22h-.23c-1.86,1.07-2.65,2.77-2.65,2.77-.87.89-2.16,3.19-3.13,5.86l-.27-.1c-1.34-5.6-2.79-12.54-2.79-17.4,0-4.12.1-22.88.62-24.16l-.12-.03c.19-.89.32-1.95.56-3.35-1.81-.92-4.19-3.2-4.56-5.27,0-.01,0-.03,0-.05.36.88.65,1.06,1.05,1.65.48-.39.89-.78,1.05-1.35l.08-.04c.42.97,1.9,1.56,2.31.26l.23-.07c.07.25.16.46.28.61,1.14,1.42,2.12-1.85,2.3-2.66h.09c-.09,1.11.08,2.07.95,2.46.39-.36.68-.93.94-1.55l2.9.04,2.04.03c-.04,3.21-1.53,3.92-3,4.56,0-.03,0-.05.01-.07,0,.03-.02.05-.02.08-.02,0-.05.02-.07.03-.13.56-.22.97-.29,1.26,0,.01,0,.03,0,.04-.08.36-.11.5-.1.5-.98,4.9.45,9.11.2,14.66-.03.65,0,1.46.04,2.36-1.89,3.05-3.13,6.58-3.69,10.5,1.17-.76,2.74-1.38,4.56-1.88.39,3.34.75,6.66.8,9.06v.03Z"/><path class="cls-8" d="M152.8,145.6c.25-.07.51-.13.77-.19h0s0,.04,0,.04c.97,2.9,2.23,5.33,2.33,6.97.08,1.39-2.51,9.78,1.4,14.92,1.08,1.41,4.58,3.74,7.27,5.22-1.31-.09-2.56-.21-3.76-.38-3.79-.54-7.19-1.54-11.01-3.11,1.89-3.25,2.96-8.2,3.34-13.06.04-.4.06-.81.08-1.22v-.03c.19-3.35.03-6.59-.42-9.12v-.04Z"/><path class="cls-3" d="M195.31,158c1.49.41,3.69,4.55,4.43,6.01,0,.03.03.07.04.1,0,.04.02.08.04.12.04.09.07.16.1.2.07.13.07.12,0,0,.04-.08.09-.17.13-.26.24.65.56,1.78.97,3.61-1.76,3.48-9.68,12.35-11.6,15.09-1.47,2.09-2.03,1.85-3.41,11.69.16,2.64.3,4.82.25,5.35-.19,2.29.05,4.84.2,7.18.21,3.31,1.34,10.97,1.55,13.82-.09.19-.28.36-.56.56h0c-2.69,1.81-13.27,3.68-15.69,3.81-3.07.16-6.19-.06-9.2-.41-.88-.1-1.74-.36-2.59-.63-1.11-.35-2.21-.71-3.28-.75-.25-6.91-.42-13.92-.42-20.95,0-4.4-.36-9.46,0-14.08-1.14-2.18-2.64-6.69-3.97-9.17-1.78-3.34-4.24-7.13-6.36-10.09.22-1.52.67-3.1,1.2-4.55.97-2.67,2.27-4.97,3.13-5.86.21-.29,2.48-2.48,2.65-2.79h.23c-.38,4.87-1.46,9.82-3.34,13.07,3.82,1.57,7.22,2.56,11.01,3.11,1.2.17,2.45.29,3.76.38.55.3,1.07.57,1.53.79,0,.11,0,.22,0,.33-4.24,3.79-.37,7.21,1.81,8.76,4.35,3.12,10.59-.19,12.19-3.93.56-1.3,1.56-7.17-1.37-6.57-.01-.13-.01-.27-.02-.42.41.04.82.07,1.26.11.3.04.62.07.94.1,2.76.33,5.52.86,8.29.93.23.07.45.13.68.19,1.24-2.58,2.59-4.68,3.44-7.49.8-2.64,1.43-5.09,1.86-7.38l.12.02Z"/><path class="cls-1" d="M203.43,112.37c2.27-1.67,2.46,2.83,2.16,4.09-.42.84-.72,1-1.16,1.55-.45-.42-.84-.84-.95-1.43l-.08-.04s.03-.04.04-.06c.49-1.05-.07-2.9,0-4.12Z"/><path class="cls-1" d="M200.86,116.55c.51-1.42.35-4.27.45-5.28l-.02-.04c.97-.65,2.08-.28,2.08,1.19.02-.01.04-.04.07-.05-.06,1.21.5,3.06,0,4.12,0,.02-.02.04-.04.06-.48.94-2.01,1.42-2.33.1l-.22-.09Z"/><path class="cls-1" d="M201.31,111.27c-.1,1.01.07,3.86-.45,5.28-.09.25-.2.45-.33.59-1.24,1.32-1.98-2.01-2.1-2.82h-.08c0-1.29-.36-2.79-.39-3.69.01.02.03.05.04.07.1-.07,1.99-1.86,3.22.56.02-.01.04-.03.07-.04l.02.04Z"/><path class="cls-1" d="M194.7,123.53c-.11-1.07-.27-2.42-.51-3.93-1.49-.78-4.09-1.5-3.78-5v-.47s5.71.08,5.71.08c.27.92.57,1.91,1.1,2.47.9-.31,1.14-1.27,1.14-2.37h.08c.12.82.86,4.15,2.1,2.82.13-.14.25-.35.33-.59l.22.09c.31,1.32,1.85.85,2.33-.1l.08.04c.11.59.5,1.01.95,1.43.44-.55.74-.71,1.16-1.55,0,.01,0,.02,0,.04-.51,2.03-3.07,4.13-4.93,4.92.13,1.39.19,2.44.31,3.33.52,7.77,1.46,20.44.77,25.61-.32,2.33-.19,10.53-1.69,13.81-.44-1.23-.56-.78-.32-.15-.74-1.46-2.94-5.6-4.43-6.01l-.12-.02c1.05-5.45,1.03-10.04-.26-14.47-.43-3.05-.2-7.13-.23-10.55-.03-3.56.16-6.99,0-9.43Z"/><path class="cls-1" d="M193.06,112.25c.1-.41.39-1,.76-1.52,1.16-1.66,3.04-2,4.14-.1.03.91.38,2.41.39,3.69,0,1.1-.24,2.06-1.14,2.37-.53-.56-.82-1.55-1.1-2.47-.25-.82-.48-1.59-.82-1.93l-2.22-.04Z"/><path class="cls-8" d="M189.59,172.66c-.13,0-.26,0-.39,0-.07-.02-.14-.04-.21-.06.2.02.4.04.6.07Z"/><path class="cls-8" d="M179.97,171.62c-.43-.04-.85-.07-1.26-.11-.02-.45-.03-.98-.03-1.75.15-.07.29-.14.44-.2,3.13,1.12,6.47,2.07,9.87,3.03-2.57-.27-5.45-.61-8.08-.87-.32-.03-.63-.06-.94-.1Z"/><path class="cls-2" d="M177.03,155.56c-.76,0-1.37-.91-1.37-2.04s.62-2.03,1.37-2.03,1.38.91,1.38,2.03-.62,2.04-1.38,2.04Z"/><path class="cls-7" d="M173.4,163.21c-2.24,7.66-9.64,6.17-10.36.79,3.53.71,6.42.13,10.36-.79Z"/><path class="cls-1" d="M166.94,173.72c1.46.58,5.87-.6,9.11-2.42.68-.38,1.64-1.05,2.64-1.54,0,.77,0,1.31.03,1.75,0,.16,0,.29.02.42.03.6.08,1.08.15,1.92.16,1.97-2.31,4.69-4.86,5.88-4.09,1.92-7.79-1-7.92-6.07,0-.11,0-.22,0-.33.3.16.59.28.83.38Z"/><path class="cls-3" d="M167.92,182.43c-2.18-1.55-6.05-4.97-1.81-8.76.13,5.07,3.83,7.99,7.92,6.07,2.55-1.2,5.02-3.91,4.86-5.88-.07-.84-.12-1.32-.15-1.92,2.93-.6,1.93,5.27,1.37,6.57-1.6,3.74-7.84,7.05-12.19,3.93Z"/><path class="cls-2" d="M161.06,151.2c.65,0,1.18.99,1.18,2.21s-.53,2.21-1.18,2.21-1.19-.99-1.19-2.21.53-2.21,1.19-2.21Z"/><path class="cls-1" d="M177.03,155.56c.77,0,1.38-.91,1.38-2.04s-.62-2.03-1.38-2.03-1.37.91-1.37,2.03.62,2.04,1.37,2.04ZM173.4,163.21c-3.94.92-6.83,1.5-10.36.79.71,5.38,8.11,6.86,10.36-.79ZM161.06,155.62c.65,0,1.18-.99,1.18-2.21s-.53-2.21-1.18-2.21-1.19.99-1.19,2.21.53,2.21,1.19,2.21ZM153.57,145.42h0c6.75-1.59,16.09-1.61,20.63-.36,1.14-3.39,2.62-7.45,3.1-10.94.41,3.91-.08,7.4.58,11.14,1.95.54,3.88,1.05,5.76,1.55l-.05.2c-.1,10.07-1.35,14.72-7.26,21.49.91.38,1.84.74,2.79,1.07-.15.06-.29.13-.44.2-1,.49-1.97,1.16-2.64,1.54-3.24,1.82-7.65,3-9.11,2.42-.25-.1-.53-.22-.83-.38-.46-.22-.98-.48-1.53-.79-2.69-1.49-6.18-3.81-7.27-5.22-3.91-5.13-1.32-13.53-1.4-14.92-.1-1.64-1.36-4.06-2.33-6.97v-.03Z"/><path class="cls-8" d="M153.57,145.41c-.26.06-.52.13-.77.19-.13.03-.25.06-.37.1-.36-3.11-.73-6.23-.87-8.62,4.52-7.31,12.75-11.77,24.1-11.77,2.12-.19,3.87,2.23,3.87,2.23,7.55-1.26,11.95,7.7,14.04,12.29.56,1.23,1.01,2.44,1.36,3.68,1.29,4.43,1.31,9.02.26,14.47-.43,2.29-1.06,4.73-1.86,7.38-.85,2.81-2.2,4.91-3.44,7.49-.23-.07-.45-.13-.68-.19.13,0,.26,0,.39,0-.2-.02-.4-.04-.6-.07-3.39-.97-6.74-1.91-9.87-3.03-.95-.33-1.89-.69-2.79-1.07,5.91-6.77,7.16-11.43,7.26-21.49l.05-.2c-1.89-.49-3.82-1-5.76-1.55-.66-3.74-.17-7.22-.58-11.14-.48,3.49-1.95,7.55-3.1,10.94-4.54-1.26-13.88-1.23-20.63.35Z"/><path class="cls-1" d="M153.26,111.62l-2.59-.04c-.28.56-.53,1.31-.82,2.01-.26.62-.56,1.19-.94,1.55-.87-.39-1.04-1.35-.95-2.45.1-1.29.55-2.74.65-3.65,1.23-1.81,3.08-1.34,4.12.39.54.91.88,2.03.53,2.03v.16Z"/><path class="cls-8" d="M152.43,145.7c-1.82.5-3.39,1.12-4.56,1.88.56-3.91,1.8-7.45,3.69-10.5.14,2.38.51,5.5.87,8.62Z"/><path class="cls-1" d="M145.56,115.34c-.13-.15-.22-.36-.28-.61-.42-1.45-.04-4.29-.07-5.31l.02-.03s.04.02.07.04c1.4-2.33,3.16-.42,3.25-.33.01-.02.03-.04.04-.07-.1.91-.55,2.36-.65,3.65h-.09c-.18.8-1.16,4.07-2.3,2.65Z"/><path class="cls-1" d="M143.08,110.42c.11-1.46,1.25-1.75,2.16-1.03l-.02.03c.02,1.02-.35,3.86.07,5.31l-.23.07c-.41,1.3-1.89.71-2.31-.26-.01-.02-.02-.04-.03-.07-.41-1.08.26-2.87.3-4.09.02,0,.04.03.06.04Z"/><path class="cls-1" d="M143.02,110.38c-.04,1.23-.71,3.01-.3,4.09,0,.02.01.04.03.07l-.08.04c-.16.57-.57.97-1.05,1.35-.39-.59-.68-.77-1.05-1.65,0,0,0,0,0-.01-.19-1.31.35-5.72,2.47-3.89,0,0,0,0,0,0Z"/><path class="cls-5" d="M146.86,164.54c-1.34-5.6-2.79-12.54-2.79-17.4,0-4.12.1-22.88.62-24.16"/><path class="cls-5" d="M199.67,164.85c.09-.13.18-.27.25-.42h0c.04-.09.09-.18.13-.27,1.49-3.28,1.37-11.48,1.69-13.81.69-5.17-.25-17.84-.77-25.61-.02-.3-.04-.61-.06-.9"/><path class="cls-5" d="M153.23,154.79c.02,1.08-.02,1.98-.16,2.6"/><path class="cls-5" d="M152.43,145.7c.39,3.34.75,6.66.8,9.06"/><path class="cls-5" d="M151.31,120.05c-.98,4.9.45,9.11.2,14.66-.03.65,0,1.46.04,2.36"/><path class="cls-5" d="M151.42,119.56c-.04.16-.07.32-.1.48"/><path class="cls-5" d="M151.81,118.15s-.02.05-.02.08c-.14.44-.26.86-.36,1.29"/><path class="cls-5" d="M194.7,123.53c.16,2.44-.03,5.87,0,9.43.03,3.42-.2,7.5.23,10.55.05.37.11.72.19,1.05"/><path class="cls-5" d="M143.02,110.38s.04.03.06.04c.11-1.46,1.25-1.75,2.16-1.03.02,0,.04.02.07.04,1.4-2.33,3.16-.42,3.25-.33.01-.02.03-.04.04-.07,1.23-1.81,3.08-1.34,4.12.39.54.91.88,2.03.53,2.03h-.01"/><path class="cls-5" d="M140.55,114.26c-.19-1.31.35-5.72,2.47-3.89"/><path class="cls-5" d="M144.17,124.26c.16-.4.29-.83.39-1.31.19-.89.32-1.95.56-3.35-1.81-.92-4.19-3.2-4.56-5.27,0-.01,0-.03,0-.05"/><path class="cls-5" d="M151.83,118.07s-.01.04-.02.07c0,.02,0,.04-.01.07-.13.48-.42,1.66-.48,1.81,0,.01,0,.02,0,.02,0,0,.02-.14.1-.5,0-.01,0-.03,0-.04.07-.28.16-.69.29-1.26.02,0,.05-.02.07-.03,0,0,0,0,0,0,1.47-.64,2.96-1.35,3-4.56v-.29"/><path class="cls-5" d="M148.62,108.92s0,.07-.01.12c-.1.91-.55,2.36-.65,3.65-.09,1.1.08,2.07.95,2.45.39-.36.68-.93.94-1.55.3-.7.54-1.46.82-2.01.14-.3.3-.55.48-.71.06.19.78.29.43.42"/><path class="cls-5" d="M145.22,109.42c.02,1.02-.35,3.86.07,5.31.07.25.16.46.28.61,1.14,1.42,2.12-1.85,2.3-2.66"/><path class="cls-5" d="M143.02,110.19c0,.06,0,.12,0,.18,0,0,0,0,0,0-.04,1.23-.71,3.01-.3,4.09,0,.02.01.04.03.07.42.97,1.9,1.56,2.31.26"/><path class="cls-5" d="M140.39,113.84c.06.16.11.3.16.42,0,0,0,.01,0,.01.36.88.65,1.06,1.05,1.65.48-.39.89-.78,1.05-1.35"/><path class="cls-5" d="M151.31,115.27c-1.31.07,1.14-.43,1.44-1.64.01-.05.02-.1.03-.15"/><path class="cls-5" d="M201.27,126.14c-.14-.44-.23-.89-.3-1.4-.12-.89-.18-1.94-.31-3.33,1.86-.79,4.42-2.89,4.93-4.92,0-.01,0-.02,0-.04.3-1.26.1-5.76-2.16-4.09-.02.01-.04.04-.07.05,0-1.47-1.11-1.84-2.08-1.19-.02,0-.04.02-.07.04-1.23-2.42-3.12-.64-3.22-.56-.01-.02-.03-.05-.04-.07-1.1-1.89-2.98-1.55-4.14.1-.36.52-.65,1.11-.76,1.52-.08.28-.06.47.09.47"/><path class="cls-5" d="M194.86,125.97c.05.3.02-.69-.16-2.44-.11-1.07-.27-2.42-.51-3.93-1.49-.78-4.09-1.5-3.78-5"/><path class="cls-5" d="M197.95,110.52s0,.07,0,.11c.03.91.38,2.41.39,3.69,0,1.1-.24,2.06-1.14,2.37-.53-.56-.82-1.55-1.1-2.47-.25-.82-.48-1.59-.82-1.93-.07.19-.8.23-.46.39"/><path class="cls-5" d="M201.31,111.27c-.1,1.01.07,3.86-.45,5.28-.09.25-.2.45-.33.59-1.24,1.32-1.98-2.01-2.1-2.82"/><path class="cls-5" d="M203.44,112.2c0,.06,0,.11,0,.17-.06,1.21.5,3.06,0,4.12,0,.02-.02.04-.04.06-.48.94-2.01,1.42-2.33.1"/><path class="cls-5" d="M205.8,116.02c-.07.16-.14.31-.21.44-.42.84-.72,1-1.16,1.55-.45-.42-.84-.84-.95-1.43"/><path class="cls-5" d="M194.8,116.65c1.35.18-1.3-.56-1.34-1.89"/><path class="cls-5" d="M180.91,171.72c2.76.33,5.52.86,8.29.93.13,0,.26,0,.39,0"/><path class="cls-5" d="M179.62,171.59c.12,0,.23.02.35.04"/><path class="cls-5" d="M147.87,147.58c1.17-.76,2.74-1.38,4.56-1.88.13-.04.25-.07.37-.1.25-.07.51-.13.77-.19,6.75-1.58,16.09-1.6,20.63-.35,1.14-3.39,2.62-7.45,3.1-10.94.41,3.91-.08,7.4.58,11.14,1.95.54,3.88,1.05,5.76,1.55,1.5.38,2.97.74,4.41,1.07,1.64-3.97,0-11.43-5.13-15.69"/><path class="cls-5" d="M175.66,125.31c-11.34,0-19.57,4.46-24.1,11.77-1.89,3.05-3.13,6.58-3.69,10.5"/><path class="cls-5" d="M164.62,172.55h-.04c-1.31-.09-2.56-.21-3.76-.38-3.79-.54-7.19-1.54-11.01-3.11,1.89-3.25,2.96-8.2,3.34-13.06.04-.4.06-.81.08-1.22v-.03c.19-3.35.03-6.59-.42-9.12"/><path class="cls-5" d="M175.66,125.31c2.12-.19,3.87,2.23,3.87,2.23,7.55-1.26,11.95,7.7,14.04,12.29.56,1.23,1.01,2.44,1.36,3.68,1.29,4.43,1.31,9.02.26,14.47-.43,2.29-1.06,4.73-1.86,7.38-.85,2.81-2.2,4.91-3.44,7.49-.23-.07-.45-.13-.68-.19-.07-.02-.14-.04-.21-.06-3.39-.97-6.74-1.91-9.87-3.03-.95-.33-1.89-.69-2.79-1.07,5.91-6.77,7.16-11.43,7.26-21.49"/><path class="cls-5" d="M153.58,145.45c.97,2.9,2.23,5.33,2.33,6.97.08,1.39-2.51,9.78,1.4,14.92,1.08,1.41,4.58,3.74,7.27,5.22.55.3,1.07.57,1.53.79.3.16.59.28.83.38,1.46.58,5.87-.6,9.11-2.42.68-.38,1.64-1.05,2.64-1.54.15-.07.29-.14.44-.2,0,0,0,0,.01,0"/><path class="cls-5" d="M159.14,149.51c.44-1.55,1.89-1.21,2.33-.24"/><path class="cls-5" d="M174.83,148.16c1.02-1.02,2.56-1.07,3.87.63"/><path class="cls-5" d="M166.16,156.87c-.53,1.4-.82,2.33-2.43,1.72.42,1.55.86,1.85,2.14,2.55"/><path class="cls-5" d="M178.69,171.51h.03c.41.04.82.07,1.26.11.3.04.62.07.94.1,2.63.26,5.51.59,8.08.87.2.02.4.04.6.07"/><path class="cls-5" d="M162.24,153.41c0,1.22-.53,2.21-1.18,2.21s-1.19-.99-1.19-2.21.53-2.21,1.19-2.21,1.18.99,1.18,2.21Z"/><path class="cls-5" d="M178.41,153.53c0,1.13-.62,2.04-1.38,2.04s-1.37-.91-1.37-2.04.62-2.03,1.37-2.03,1.38.91,1.38,2.03Z"/><path class="cls-5" d="M162.39,163.86c.22.05.44.1.65.14,3.53.71,6.42.13,10.36-.79.13-.03.27-.07.4-.1"/><path class="cls-5" d="M163.04,163.96s0,.03,0,.04c.71,5.38,8.11,6.86,10.36-.79.01-.04.02-.09.04-.13"/><path class="cls-4" d="M166.11,173.06c0,.09,0,.19,0,.27,0,.11,0,.22,0,.33.13,5.07,3.83,7.99,7.92,6.07,2.55-1.2,5.02-3.91,4.86-5.88-.07-.84-.12-1.32-.15-1.92-.01-.13-.01-.27-.02-.42-.02-.45-.03-.98-.03-1.75v-.27"/><path class="cls-4" d="M166.27,173.53c-.05.04-.1.09-.16.14-4.24,3.79-.37,7.21,1.81,8.76,4.35,3.12,10.59-.19,12.19-3.93.56-1.3,1.56-7.17-1.37-6.57-.04,0-.08.01-.13.03"/><path class="cls-4" d="M156.8,184.36c-.27,1.3-.44,2.67-.54,4.09-.36,4.62,0,9.68,0,14.08,0,7.03.18,14.04.42,20.95,1.08.04,2.18.4,3.28.75.85.27,1.72.53,2.59.63,3.02.35,6.14.57,9.2.41,2.42-.13,13-2,15.69-3.81h0c.27-.19.47-.37.56-.56"/><path class="cls-4" d="M185.52,184.4c0,2.38.27,6.67.48,10.15.16,2.64.3,4.82.25,5.35-.19,2.29.05,4.84.2,7.18.21,3.31,1.34,10.97,1.55,13.82"/><path class="cls-4" d="M161.14,171.98c-.1.03-.21.1-.33.19-1.14.97-2.87,5.03-2.63,6.02"/><path class="cls-4" d="M199.73,164.01c-.24-.63-.12-1.08.32.15.24.65.56,1.78.97,3.61.01.06.03.12.04.19"/><path class="cls-4" d="M199.78,164.11c.07.13.12.25.15.31.06.13.06.14,0,0-.02-.04-.05-.11-.1-.2-.02-.04-.04-.08-.04-.12"/><path class="cls-4" d="M199.78,164.11s-.04-.07-.04-.1"/><path class="cls-4" d="M195.31,158c1.49.41,3.69,4.55,4.43,6.01"/><path class="cls-4" d="M150.27,158.78c.21-.29,2.48-2.48,2.65-2.79-1.86,1.08-2.65,2.79-2.65,2.79-.87.89-2.16,3.19-3.13,5.86-.53,1.46-.98,3.03-1.2,4.55"/><path class="cls-4" d="M145.93,169.19c2.12,2.96,4.58,6.75,6.36,10.09,1.32,2.49,2.82,7,3.97,9.17.02.04.05.1.07.14"/><path class="cls-4" d="M201.22,167.33c-.05.13-.12.28-.2.44-1.76,3.48-9.68,12.35-11.6,15.09-1.47,2.09-2.03,1.85-3.41,11.69,0,.03,0,.07-.01.1"/><line class="cls-4" x1="205.1" y1="112.04" x2="215.51" y2="112.35"/><polyline class="cls-4" points="150.27 111.57 150.68 111.58 153.26 111.62 193.06 112.25 195.28 112.28"/><line class="cls-4" x1="136.15" y1="111.57" x2="140.65" y2="111.57"/><line class="cls-4" x1="205.88" y1="114.22" x2="215.67" y2="114.37"/><polyline class="cls-4" points="149.81 113.59 149.85 113.59 152.76 113.63 154.8 113.66 190.41 114.13 196.11 114.22 196.25 114.22"/><line class="cls-4" x1="135.52" y1="113.59" x2="140.39" y2="113.59"/><line class="cls-6" x1="91.04" y1="113.54" x2="255.28" y2="113.54"/><path class="cls-2" d="M158.11,18.91c1.04,2.04,2.35,6.33,2.92,9.55,2.26,12.56-3.02,32.84-11.4,43.89-1.79,2.36-3.2,4.62-3.2,5.05s-3.3,4.4-7.35,8.69c-3.96,4.4-6.78,7.94-6.31,8.05.56,0,1.7.21,2.73.43.94.21,7.44.64,14.41.86,13,.54,16.58,1.72,17.9,5.79,1.23,3.65-6.69,6.22-11.11,3.54-2.73-1.72-27.79-1.72-33.63,0-6.41,1.93-8.2.86-8.2-4.93,0-3.76.38-4.29,3.86-6.33,6.31-3.54,9.8-6.76,18.93-17.49,9.23-10.84,13.75-19.21,16.76-30.8,2.92-11.37,1.13-19.31-5.65-25.43-5.46-4.83-14.6-1.61-25.15,8.9-4.61,4.62-5.75,5.26-6.97,4.08-1.88-1.83-1.32-6.55,1.04-7.94,1.13-.54,3.86-2.79,6.12-4.93,4.99-4.51,8.57-7.3,12.62-9.77,6.03-3.76,17.71.97,21.66,8.8Z"/><path class="cls-2" d="M214.77,8.8c4.49,0,5.35.4,7.93,3.19,1.53,1.79,2.77,3.59,2.77,4.09s.77,1.89,1.82,3.29c4.3,5.68,8.41,27.4,6.79,36.17-.48,2.89-.96,7.67-.96,10.56,0,6.88-1.53,11.56-8.69,26.71-5.55,11.66-12.71,15.64-20.74,11.46-9.37-4.98-14.82-11.86-16.53-21.22-.38-2.19-1.15-5.78-1.72-7.98-1.15-4.88-.67-21.42.86-28.59,2.39-11.06,3.06-13.45,5.54-18.73,2.96-6.48,9.75-14.35,14.53-16.94,2.01-1.2,5.35-1.89,8.41-1.99ZM209.8,16.77c-2.77,0-9.27,7.57-12.71,14.95-3.34,6.97-6.98,23.71-6.98,32.28,0,6.78,3.53,21.92,5.92,25.01,5.35,7.08,14.62,9.66,19.21,5.28,1.34-1.29,3.73-5.88,5.35-10.26,1.72-4.39,3.44-8.87,3.92-9.96,1.49-3.42,1.97-10.86,2.67-15.44,1.15-8.47-.48-26.6-2.77-31.09-2.11-4.09-5.07-7.77-6.21-7.77-1.69,0-6.45-2.99-8.41-2.99Z"/></svg>