<?xml version="1.0" encoding="UTF-8"?><svg id="Layer_2" xmlns="http://www.w3.org/2000/svg" viewBox="0 0 346.32 235.44"><defs><style>.cls-1{fill:#010101;}.cls-2{fill:#dcc1ab;}.cls-3{fill:#b32a2e;}.cls-4{fill:#996949;}.cls-5{fill:#fed20b;}.cls-6{stroke-linecap:round;stroke-linejoin:round;stroke-width:1.15px;}.cls-6,.cls-7{fill:none;stroke:#231f20;}.cls-8{fill:#967447;}.cls-7{stroke-miterlimit:10;stroke-width:4.61px;}.cls-9{fill:#7b7b7b;}</style></defs><line class="cls-7" x1="58.78" y1="139.12" x2="287.54" y2="139.12"/><path class="cls-2" d="M239.61,132.07c2.45,1.23,4.75,3.36,1.55,3.36-7.68,0-8.53-3.41-15.1.04-8.25-.24-.13-3.71.13-6.01.72-6.52-2.28-14.81-3.4-21.63-.3-3.77.48-9.75-1.17-14.51l-.18-1.44c3.63-.48,6.88-.11,9.53-1.34-.17,4.55,1.28,9.22,1.43,15.18.17,7.37-.18,17.05.57,24.25,2.82,1.54,4.68,1.12,6.63,2.1Z"/><path class="cls-8" d="M231.69,68.22c-2.81.65-5.55,1.05-8.47,1.22-.75.05-1.52.07-2.3.08-.62.01-1.25.01-1.9,0,3.37-1.54,7.78-4,9.21-5.59,5.18-5.81,2.84-16.13,3.07-17.79.27-1.97,2.01-4.76,3.44-8.15l.02-.05c.31.1.61.19.91.3l-.02.05c-1.99,7.68-2.06,21.16,1.43,28.43-1.87.6-3.64,1.11-5.4,1.52Z"/><path class="cls-2" d="M219.03,69.52c-1.17.53-2.21.95-2.95,1.19-1.56.49-5.64-.81-9.12-2.77-.55-.31-1.09-.64-1.6-.98-.33-.23-.71-.47-1.13-.75-.66-.44-1.41-.97-2.23-1.63,1.03-.27,1.59-.48,3.27-1.02-6.47-8.69-7.55-14.39-6.73-26.5l-.05-.25c2.31-.4,4.68-.85,7.07-1.32,1.14-4.43.88-8.66,1.73-13.33.24,4.24,1.64,9.25,2.71,13.44,5.56-1.09,16.79-.19,24.76,2.33l-.02.05c-1.43,3.4-3.17,6.19-3.44,8.15-.23,1.66,2.11,11.98-3.07,17.79-1.43,1.6-5.84,4.06-9.21,5.59ZM226.45,46.96c.11-1.47-.44-2.7-1.23-2.76-.78-.06-1.51,1.08-1.62,2.54-.11,1.46.42,2.7,1.21,2.76.79.06,1.53-1.07,1.64-2.54ZM207.47,45.64c.1-1.35-.55-2.5-1.46-2.57-.92-.07-1.75.96-1.85,2.31-.1,1.36.55,2.5,1.47,2.57.91.07,1.73-.96,1.84-2.31Z"/><path class="cls-5" d="M219.05,87.35c-4.21,3.84-10.07,6.71-15.27,8.79-.02.31-.94.75-2.33,1.2-2.69.87-7.15,1.77-10.19,1.8-1.5.02-2.66-.18-3.1-.7-1.16-10.19-1.76-27.44.8-31.01.08-.02.15-.03.23-.05,4.22.76,11.99-.05,14.4-.05l.39-.04c5.55,22.04,20.76,6.63,19.24,2.21v-.09c2.91-.16,5.65-.57,8.46-1.22,1.01,7.61,1.25,13.34,1.25,20.97-.61.59-1.27,1.02-1.97,1.35-2.65,1.23-5.9.87-9.53,1.34-.7.09-1.42.22-2.15.38-.5-2.98-.26-2.14-.25-4.91Z"/><path d="M225.22,44.2c.79.06,1.34,1.3,1.23,2.76-.11,1.46-.85,2.6-1.64,2.54-.78-.06-1.32-1.3-1.21-2.76.11-1.46.83-2.61,1.62-2.54Z"/><path class="cls-2" d="M219.03,69.52c.65.01,1.27.01,1.9,0h0c-.1,2.07-1.24,4.58-2.6,5.39-3.2,2.26-6.49,2.39-9.68-1.25,0,0-1.97-3.2-1.83-5.51l.14-.21c3.48,1.96,7.56,3.26,9.12,2.77.75-.24,1.79-.66,2.95-1.19Z"/><path d="M206.01,43.07c.91.07,1.57,1.22,1.46,2.57-.11,1.35-.93,2.39-1.84,2.31-.92-.07-1.58-1.21-1.47-2.57.1-1.35.93-2.38,1.85-2.31Z"/><path class="cls-5" d="M203.99,67.32c-.07-.28-.14-.57-.21-.86l.45-.26c.41.28.79.53,1.13.75.51.34,1.05.67,1.6.98l-.14.21c-.13,2.3,1.83,5.51,1.83,5.51,3.19,3.64,6.48,3.51,9.68,1.25,1.36-.81,2.5-3.31,2.6-5.37h0c.78-.02,1.55-.05,2.3-.09v.09c1.52,4.42-13.68,19.83-19.24-2.21Z"/><path class="cls-2" d="M191.27,99.15c3.04-.03,7.49-.93,10.19-1.8l.03.08c.75,7.13-1.55,6.32.25,13.6,1.61,6.55-.35,17.37.92,24.06,9.98,4.1,8.32,4.48,7.29,5.63v.05c-2.44.2-5.29.08-7.93.21-7.12.35-12.29.51-8.19-4.22,2.61-3.02-.62-15.6-.7-19.42-.16-8.39-.12-6.6-1.71-17.19-.05-.32-.1-.65-.15-1Z"/><path class="cls-5" d="M191.27,99.15c.05.35.1.68.15,1-2.59,1.26-5.47,2.47-7.6,2.63-.34.03-.68.02-1.01-.02-.02,0-.03,0-.04,0,.03-.02.01-.02-.04,0-1.99-.25-3.77-1.56-5.24-3.34-1.77-2.13-3.08-4.93-3.7-7.32-.25-.71-.8-2.25-1.45-4.13-.31-.91-.65-1.88-.97-2.88-1.39-4.23-2.68-8.77-1.9-9.17l-.1-.48c15.66-3.31,11.74-1.9,19.24-7.9.13-.03.25-.05.38-.08-2.56,3.56-1.96,20.81-.8,31.01.44.52,1.6.71,3.1.7Z"/><path class="cls-4" d="M202,64.58c.82.66,1.58,1.19,2.23,1.63l-.45.26c.07.29.14.58.21.86l-.39.04c-2.42,0-10.18.8-14.4.05-.06,0-.12-.02-.17-.03.02-.02.04-.04.06-.06,3.79-.31,7.9-1.52,12.87-2.78.02.02.04.03.05.05Z"/><path class="cls-5" d="M189.19,67.4c-.08.02-.15.03-.23.05.02-.03.03-.05.05-.08.06.02.11.03.17.03Z"/><path class="cls-8" d="M205.27,63.55c-1.68.55-2.24.75-3.27,1.02-.02-.02-.03-.03-.05-.05-4.97,1.26-9.08,2.47-12.87,2.78-.02.02-.04.04-.06.06-.02.03-.04.05-.05.08-.13.03-.25.05-.38.08-1.25-3.21-2.67-5.86-3.43-9.31-2.91-13.18-2.69-22.05,2.07-30.7,2.93-5.32,9.06-15.68,18.01-13.47,0,0,2.32-2.75,4.86-2.32,19.31,1.49,30.28,13.18,31.33,29.34-1.42-1.09-3.42-2.03-5.74-2.83-.3-.11-.6-.2-.91-.3-7.97-2.52-19.19-3.42-24.76-2.33-1.06-4.19-2.47-9.2-2.71-13.44-.85,4.67-.59,8.9-1.73,13.33-2.39.47-4.76.91-7.07,1.32l.05.25c-.82,12.11.26,17.81,6.73,26.5Z"/><path class="cls-9" d="M182.72,102.75c-1.34.38-26.89,12.24-27.08,7.25l-.94-.07c.27-.09.55-.18.84-.28,4.13-1.35,19.68-9.11,21.93-10.24,1.47,1.78,3.26,3.09,5.24,3.34Z"/><path class="cls-9" d="M145.67,107.23c-1.23-1.7-2.21-3.49-2.97-5.36,5.42-2.29,25.07-11.37,29.63-13.9.65,1.87,1.21,3.42,1.45,4.13.62,2.39,1.92,5.19,3.7,7.32-2.25,1.13-17.8,8.89-21.93,10.24-.3.1-.58.19-.84.28-1.42.48-2.49.87-3.39,1.02-1.79.31-2.92-.27-4.89-2.74-.26-.32-.51-.65-.75-.98Z"/><path class="cls-9" d="M171.36,85.08c.33,1,.66,1.98.97,2.88-4.56,2.53-24.21,11.61-29.63,13.9-.39-.94-.72-1.9-.99-2.88h.02c5.07-1.73,24.08-11.05,29.63-13.9Z"/><path class="cls-9" d="M169.45,75.91c-.77.4.52,4.94,1.9,9.17-5.54,2.85-24.56,12.18-29.63,13.9h-.02c-.44-1.49-.75-3.03-.97-4.62-.12-.88-.22-1.78-.28-2.69,3.73-3.19,19.42-14.22,27.74-16,.39-.08.78-.16,1.15-.25l.1.48Z"/><path class="cls-3" d="M154.02,123.76c2.4,3.7-8.8,5.88-12.35,4.24-4.89-2.28-6.73-8.87-8.53-14.29l-.04-.16c.82-.21,1.7-.47,2.61-.78,1.07,4.96,3.1,9.51,6.32,11.76,2.92,2.06,6.82,2.21,11.86-.98l.14.22Z"/><path class="cls-3" d="M153.99,123.47s-.07.05-.11.07c-5.04,3.19-8.93,3.04-11.86.98l.02-.02c.19-2.74,2.17-4.62,4.17-5.43.29-.12.57-.22.85-.29,2.39-.6,4.23-.25,5.43.98.81.84,1.32,2.09,1.5,3.71Z"/><path class="cls-3" d="M146.42,108.21c1.98,2.48,3.11,3.06,4.89,2.74l.02.12c-3.03,2.39-1.06,6.26,1.24,8.59l-.09.09c-1.19-1.23-3.04-1.58-5.43-.98-.28.07-.57.17-.85.29l-.07-.34c-2.52-2.14-5.91-6.82-2.64-9.82l-.05-.07c.73-.49,1.46-1.03,2.21-1.62.24.33.49.66.75.98Z"/><path class="cls-3" d="M146.14,118.73l.07.34c-2,.81-3.98,2.69-4.17,5.43l-.02.02c-3.21-2.25-5.25-6.8-6.32-11.76,2.36-.82,4.99-2.05,7.75-3.92l.05.07c-3.28,3,.11,7.68,2.64,9.82Z"/><path class="cls-2" d="M128.08,114.42c-1.35.14-2.34.18-2.87.31l-.16.06c-2.7.1-5.45.18-6.09,2.13l-.45-.14c-1.24-.49-.95-.7-1.44-1.18-.54-.55-1.05-1.99-1.1-2.78-.1-1.82,1.86-3.11,1.17-4.5l.29-.16c4.47-3.24,8.2-5.33,13.54-6.84,7.23-2.05,4.91-2.54,9.31-6.87l.44-.06c.22,1.59.53,3.13.97,4.62.27.98.6,1.95.99,2.88.76,1.87,1.74,3.66,2.97,5.36-.75.59-1.48,1.13-2.21,1.62-2.76,1.87-5.39,3.1-7.75,3.92-.91.32-1.79.57-2.61.78-1.97.5-3.68.73-5.02.87Z"/><path class="cls-3" d="M131.5,133.08c3.34,1.41-3.37,3.89-4.89,4.2-6.32,1.31-11.68-.63-13.49-7.01-2.1-7.4-7.34-11.86-3.77-16.73l.46-.05c.02.25.06.49.1.72.46,2.61,1.76,4.5,2.9,6.99,1.19,2.62,1.54,5.64,2.74,8.26,1.11,2.42,2.54,4.2,4.25,5.25,2.52,1.56,5.65,1.52,9.23-.38.9-.48,1.66-.92,2.39-1.64-.03.11,0,.23.08.39Z"/><path class="cls-3" d="M129.87,127.95c1.15.78,1.87,2.18,1.71,4.34-.07.16-.14.27-.16.39-.73.72-1.49,1.16-2.39,1.64-3.58,1.9-6.71,1.94-9.23.38v-.02c-.76-2.98,1.2-5.43,3.74-6.66,2.13-1.03,4.68-1.2,6.33-.08Z"/><path class="cls-3" d="M128.08,114.42c2.23,1.33-.37,5.52-.45,7.6-.06,1.4,1.22,4.2,2.24,5.93-1.65-1.12-4.2-.95-6.33.08l-.11-.3c-1.69-1.63-3.41-5.07-4.31-8.09-.35-1.17-.37-2.06-.15-2.72.64-1.96,3.39-2.04,6.09-2.13l.16-.06c.53-.13,1.52-.17,2.87-.31Z"/><path class="cls-3" d="M123.54,128.03c-2.54,1.23-4.5,3.68-3.73,6.66v.02c-1.72-1.05-3.15-2.83-4.26-5.25-1.2-2.62-1.55-5.64-2.74-8.26-1.14-2.49-2.44-4.38-2.9-6.99,1.06-3.39,4.36-5.01,7.15-6.08.04.06.08.12.1.18.69,1.39-1.27,2.68-1.17,4.5.04.79.55,2.24,1.1,2.78.49.49.2.7,1.44,1.18l.45.14c-.22.67-.19,1.55.15,2.72.9,3.02,2.62,6.46,4.31,8.09l.11.3Z"/><path class="cls-6" d="M210.09,11.73c19.31,1.49,30.28,13.18,31.33,29.34-1.42-1.09-3.42-2.03-5.74-2.83-.3-.11-.6-.2-.91-.3-7.97-2.52-19.19-3.42-24.76-2.33-1.06-4.19-2.47-9.2-2.71-13.44-.85,4.67-.59,8.9-1.73,13.33-2.39.47-4.76.91-7.07,1.32-1.83.32-3.63.62-5.39.89-1.61-4.92,1.06-13.73,7.62-18.38"/><path class="cls-6" d="M218.97,69.52h.06c.65.01,1.27.01,1.9,0,.78-.01,1.55-.04,2.3-.08,2.92-.16,5.66-.57,8.47-1.22,1.76-.41,3.53-.91,5.4-1.52-3.5-7.27-3.42-20.74-1.43-28.43"/><path class="cls-6" d="M201.31,64.75c.26-.07.49-.12.69-.18,1.03-.27,1.59-.48,3.27-1.02-6.47-8.69-7.55-14.39-6.73-26.5"/><path class="cls-6" d="M210.09,11.73c-2.54-.43-4.86,2.32-4.86,2.32-8.95-2.22-15.08,8.15-18.01,13.47-4.76,8.65-4.98,17.52-2.07,30.7.76,3.45,2.19,6.1,3.43,9.31.13-.03.25-.05.38-.08.08-.02.15-.03.23-.05.22-.04.43-.09.65-.13"/><path class="cls-6" d="M234.75,37.98c-1.43,3.4-3.17,6.19-3.44,8.15-.23,1.66,2.11,11.98-3.07,17.79-1.43,1.6-5.84,4.06-9.21,5.59-1.17.53-2.21.95-2.95,1.19-1.56.49-5.64-.81-9.12-2.77-.55-.31-1.09-.64-1.6-.98-.33-.23-.71-.47-1.13-.75-.66-.44-1.41-.97-2.23-1.63-.02-.02-.03-.03-.05-.05-.03-.02-.07-.05-.1-.08"/><path class="cls-6" d="M227.69,42.34c-.38-1.89-2.16-1.63-2.77-.5"/><path class="cls-6" d="M208.96,39.26c-1.13-1.32-2.98-1.53-4.71.4"/><path class="cls-6" d="M218.57,50.53c.5,1.74.77,2.87,2.75,2.28-.66,1.83-1.2,2.14-2.81,2.87"/><path class="cls-6" d="M220.41,60.05c-2.09,2-6.74,1.58-8.21-.64"/><path class="cls-6" d="M220.93,69.53c-.1,2.06-1.24,4.57-2.6,5.37-3.2,2.26-6.49,2.39-9.68-1.25,0,0-1.97-3.2-1.83-5.51"/><path class="cls-6" d="M202.92,64.28c-.33.08-.65.16-.97.25-4.97,1.26-9.08,2.47-12.87,2.78-.04,0-.08,0-.12.01"/><path class="cls-6" d="M223.61,46.74c-.11,1.46.42,2.7,1.21,2.76.79.06,1.53-1.07,1.64-2.54.11-1.47-.44-2.7-1.23-2.76-.78-.06-1.51,1.08-1.62,2.54Z"/><path class="cls-6" d="M204.16,45.38c-.1,1.36.55,2.5,1.47,2.57.91.07,1.73-.96,1.84-2.31.1-1.35-.55-2.5-1.46-2.57-.92-.07-1.75.96-1.85,2.31Z"/><path class="cls-6" d="M192.78,99.48c-.44.23-.9.45-1.36.67-2.59,1.26-5.47,2.47-7.6,2.63-.34.03-.68.02-1.01-.02-.02,0-.03,0-.04,0-.02,0-.03,0-.04,0-1.99-.25-3.77-1.56-5.24-3.34-1.77-2.13-3.08-4.93-3.7-7.32"/><path class="cls-6" d="M224.77,75.67c.12,4.64-2.23,8.49-5.72,11.68-4.21,3.84-10.07,6.71-15.27,8.79"/><path class="cls-6" d="M232.95,89.19c-.61.59-1.27,1.02-1.97,1.35-2.65,1.23-5.9.87-9.53,1.34-.7.09-1.42.22-2.15.38-.5-2.98-.26-2.14-.25-4.91v-.25"/><path class="cls-6" d="M189.87,66.8c-.3.04-.56.22-.8.51-.02.02-.04.04-.06.06-.02.03-.04.05-.05.08-2.56,3.56-1.96,20.81-.8,31.01.44.52,1.6.71,3.1.7,3.04-.03,7.49-.93,10.19-1.8,1.39-.45,2.31-.89,2.33-1.2.26-4.1,0-7.42-1.02-17.4"/><path class="cls-6" d="M203.78,66.46c.07.29.14.58.21.86,5.55,22.04,20.76,6.63,19.24,2.21"/><path class="cls-6" d="M221.63,93.32c1.64,4.76.87,10.73,1.17,14.51.04.5.1.96.18,1.37"/><path class="cls-6" d="M230.98,90.3c0,.08,0,.16,0,.24-.17,4.55,1.28,9.22,1.43,15.18.17,7.37-.18,17.05.57,24.25,2.82,1.54,4.68,1.12,6.63,2.1,2.45,1.23,4.75,3.36,1.55,3.36-7.68,0-8.53-3.41-15.1.04-8.25-.24-.13-3.71.13-6.01.72-6.52-2.28-14.81-3.4-21.63-.11-.66-.2-1.31-.27-1.94"/><path class="cls-6" d="M188.59,67.52c-7.5,6-3.57,4.59-19.24,7.9-.37.08-.75.16-1.15.25-8.32,1.78-24.01,12.8-27.74,16,.06.91.15,1.81.28,2.69.22,1.59.53,3.13.97,4.62.27.98.6,1.95.99,2.88.76,1.87,1.74,3.66,2.97,5.36.24.33.49.66.75.98,1.98,2.48,3.11,3.06,4.89,2.74.9-.16,1.97-.54,3.39-1.02.27-.09.55-.18.84-.28,4.13-1.35,19.68-9.11,21.93-10.24.02-.01.04-.02.05-.03"/><path class="cls-6" d="M182.74,102.78s.06-.02.07-.02c.11,0-2.54,1.38-6.65,2.93"/><path class="cls-6" d="M155.64,110c.18,5,25.74-6.86,27.08-7.25.05-.02.07-.01.04,0,0,0-.01.02-.03.03"/><path class="cls-6" d="M140.3,94.42c-4.4,4.34-2.08,4.83-9.31,6.87-5.35,1.52-9.08,3.6-13.54,6.84"/><path class="cls-6" d="M145.72,107.19s-.04.03-.05.04c-.75.59-1.48,1.13-2.21,1.62-2.76,1.87-5.39,3.1-7.75,3.92-.91.32-1.79.57-2.61.78-1.97.5-3.68.73-5.02.87-1.35.14-2.34.18-2.87.31"/><path class="cls-6" d="M173.78,92.09c-.25-.71-.8-2.25-1.45-4.13-.31-.91-.65-1.88-.97-2.88-1.39-4.23-2.68-8.77-1.9-9.17"/><path class="cls-6" d="M119.81,134.69c-.77-2.98,1.19-5.43,3.73-6.66,2.13-1.03,4.68-1.2,6.33-.08,1.15.78,1.87,2.18,1.71,4.34-.02.25-.05.52-.09.79-.08-.17-.1-.29-.08-.39.02-.12.1-.24.16-.39.04-.08.07-.17.09-.29"/><path class="cls-6" d="M109.78,113.21c.01.09.02.18.03.27.02.25.06.49.1.72.46,2.61,1.76,4.5,2.9,6.99,1.19,2.62,1.54,5.64,2.74,8.26,1.11,2.42,2.54,4.2,4.25,5.25,2.52,1.56,5.65,1.52,9.23-.38.9-.48,1.66-.92,2.39-1.64.04-.03.07-.07.11-.1"/><path class="cls-6" d="M135.71,112.77c1.07,4.96,3.1,9.51,6.32,11.76,2.92,2.06,6.82,2.21,11.86-.98.04-.02.07-.04.11-.07-.18-1.62-.69-2.87-1.5-3.71-1.19-1.23-3.04-1.58-5.43-.98-.28.07-.57.17-.85.29-2,.81-3.98,2.69-4.17,5.43"/><path class="cls-6" d="M109.35,113.53c-3.57,4.87,1.67,9.34,3.77,16.73,1.81,6.38,7.17,8.32,13.49,7.01,1.53-.31,8.24-2.79,4.89-4.2"/><path class="cls-6" d="M125.05,114.78c-2.7.1-5.45.18-6.09,2.13-.22.67-.19,1.55.15,2.72.9,3.02,2.62,6.46,4.31,8.09"/><path class="cls-6" d="M127.96,114.35s.08.04.12.07c2.23,1.33-.37,5.52-.45,7.6-.06,1.4,1.22,4.2,2.24,5.93.01.02.02.04.03.06"/><path class="cls-6" d="M109.83,114.45c.02-.08.05-.16.07-.25,1.06-3.39,4.36-5.01,7.15-6.08.04.06.08.12.1.18.69,1.39-1.27,2.68-1.17,4.5.04.79.55,2.24,1.1,2.78.49.49.2.7,1.44,1.18"/><path class="cls-6" d="M151.33,111.08c-3.03,2.39-1.06,6.26,1.24,8.59.09.09.17.17.26.25"/><path class="cls-6" d="M146.14,118.73c-2.52-2.14-5.91-6.82-2.64-9.82"/><path class="cls-6" d="M133.14,113.71c1.8,5.42,3.64,12.01,8.53,14.29,3.55,1.64,14.75-.54,12.35-4.24"/><path class="cls-6" d="M172.6,87.81c-.08.05-.17.1-.27.15-4.56,2.53-24.21,11.61-29.63,13.9-.12.05-.23.1-.33.14"/><path class="cls-6" d="M141.73,98.98c5.07-1.72,24.08-11.05,29.63-13.9.19-.1.36-.18.52-.27"/><path class="cls-6" d="M231.68,68.08l.02.14c1.01,7.61,1.25,13.34,1.25,20.97"/><path class="cls-6" d="M191.24,98.96c.01.06.02.12.03.18.05.35.1.68.15,1,1.59,10.59,1.55,8.79,1.71,17.19.08,3.82,3.31,16.4.7,19.42-4.1,4.73,1.07,4.58,8.19,4.22,2.65-.13,5.5-.01,7.94-.21.17-.02.34-.03.51-.05"/><path class="cls-6" d="M201.48,97.43c.75,7.13-1.55,6.32.25,13.6,1.61,6.55-.35,17.37.92,24.06,9.98,4.1,8.32,4.48,7.29,5.63"/><path class="cls-6" d="M188.93,67.36s.06.01.09.02c.06.02.11.03.17.03,4.22.76,11.99-.05,14.4-.05"/><path class="cls-1" d="M104.9,158.62v-.07s-.02-.04,0,.07Z"/><path class="cls-1" d="M162.85,144.18c3.68,0,4.39.33,6.5,2.61,1.25,1.47,2.27,2.94,2.27,3.35s.63,1.55,1.49,2.69c3.53,4.66,6.9,22.46,5.57,29.65-.39,2.37-.79,6.29-.79,8.66,0,5.64-1.25,9.48-7.13,21.9-4.55,9.56-10.42,12.82-17,9.39-7.68-4.08-12.15-9.72-13.56-17.4-.31-1.8-.94-4.74-1.41-6.54-.94-4-.55-17.56.71-23.44,1.96-9.07,2.51-11.03,4.54-15.36,2.43-5.31,7.99-11.76,11.91-13.89,1.65-.98,4.39-1.55,6.9-1.63ZM158.77,150.71c-2.27,0-7.6,6.21-10.42,12.25-2.74,5.72-5.72,19.44-5.72,26.46,0,5.56,2.9,17.97,4.86,20.5,4.39,5.8,11.99,7.92,15.75,4.33,1.1-1.06,3.05-4.82,4.39-8.41,1.41-3.6,2.82-7.27,3.21-8.17,1.22-2.8,1.62-8.9,2.19-12.66.94-6.94-.39-21.81-2.27-25.49-1.73-3.35-4.16-6.37-5.09-6.37-1.39,0-5.29-2.45-6.9-2.45Z"/><path class="cls-1" d="M121.02,221.63c-1.02,1.12-2.51,2-3.29,2-2.66,0-3.45-4.33-3.21-18.43.78-52.65.86-48.96-.86-49.68-.94-.32,1.65-9.93,2.19-10.34.55-.48,2.35-.88,4.07-.88s1.02,11.3.71,28.93c-.16,7.69-.47,15.22-.71,16.75-.62,4.25-.62,23.16,0,24.12"/><path class="cls-1" d="M221.83,144.18c3.68,0,4.39.33,6.5,2.61,1.25,1.47,2.27,2.94,2.27,3.35s.63,1.55,1.49,2.69c3.53,4.66,6.9,22.46,5.56,29.65-.39,2.37-.79,6.29-.79,8.66,0,5.64-1.25,9.48-7.13,21.9-4.55,9.56-10.42,12.82-17,9.39-7.68-4.08-12.15-9.72-13.56-17.4-.31-1.8-.94-4.74-1.41-6.54-.94-4-.55-17.56.71-23.44,1.96-9.07,2.51-11.03,4.54-15.36,2.43-5.31,7.99-11.76,11.91-13.89,1.65-.98,4.39-1.55,6.89-1.63ZM217.75,150.71c-2.27,0-7.6,6.21-10.42,12.25-2.74,5.72-5.72,19.44-5.72,26.46,0,5.56,2.9,17.97,4.86,20.5,4.39,5.8,11.99,7.92,15.75,4.33,1.1-1.06,3.05-4.82,4.39-8.41,1.41-3.6,2.82-7.27,3.21-8.17,1.22-2.8,1.62-8.9,2.19-12.66.94-6.94-.39-21.81-2.27-25.49-1.73-3.35-4.16-6.37-5.09-6.37-1.39,0-5.29-2.45-6.9-2.45Z"/></svg>