<?xml version="1.0" encoding="UTF-8"?><svg id="Layer_2" xmlns="http://www.w3.org/2000/svg" viewBox="0 0 346.32 235.44"><defs><style>.cls-1{fill:#e1c0a5;}.cls-2{fill:#010101;}.cls-3{fill:#b72025;}.cls-4{fill:#b32a2e;}.cls-5{fill:#996949;}.cls-6{fill:#fed20b;}.cls-7,.cls-8{stroke-width:1.15px;}.cls-7,.cls-8,.cls-9{fill:none;stroke:#231f20;}.cls-7,.cls-9{stroke-miterlimit:10;}.cls-10{fill:#fff;}.cls-8{stroke-linecap:round;stroke-linejoin:round;}.cls-11{fill:#967447;}.cls-9{stroke-width:2.3px;}.cls-12{fill:#7b7b7b;}</style></defs><path class="cls-11" d="M221.51,197.15c-.55-8.4-1.54-11.72-4.49-17.12-.21-.39-.43-.79-.66-1.2,3.61-1.52,9.1-.96,15.21-.08-3.37-2.25-10.7-2.74-17.69-1.3l-.03-.13c6.01-2.82,16.1-1.58,22.77,2.76h0c3.3,2.55,6.41,8.77,7.68,13.68,1.81,7.03.45,13.42-3.09,19.76-2.94,5.28-7.77,4.88-11.55,7.04-5.69.74-17.93,2.41-33.11,1.27,0,0-.28-1.41-.6-3.3-.44-2.66-.93-6.25-.76-8.14.23-.17.85-.44,1.62-.77,1.57-.66,3.79-1.51,4.61-1.96h0c2.76-.76,12.21-2.51,20.03-10.51h.05Z"/><path class="cls-5" d="M231.57,178.74c-6.11-.87-11.6-1.44-15.21.08.23.42.45.81.66,1.2l-.48.26c-.28-.01-.56,0-.86.04v-.12c-.55-1.4-.59-1.25-2.46-2.64.22-.05.43-.09.65-.13,6.99-1.44,14.33-.95,17.69,1.3Z"/><path class="cls-1" d="M217.03,180.03c2.94,5.4,3.94,8.72,4.49,17.12h-.05c-7.82,8.01-17.28,9.75-20.03,10.51.06-.04.12-.07.16-.1-1.5-.31-2.53-1.17-4.01-2.62.12-4.77-1.45-10.61-1.41-13.42,0-.31,0-.6-.02-.88.67,1.28,1.64,2.69,2.93,2.73.07-2.05-2.42-4.87-2.02-6.11h-.03c.03-.13.08-.22.2-.19,1.03.1,2.05.16,3.46-.89-.01-1.8.46-3.8,2.22-4.53,1.55,3.73,7.02,1.77,8.64.4.69-.58,2.5-1.5,4.14-1.71.3-.04.58-.05.86-.04l.48-.26ZM209.66,188.1c.91-.38,1.51-1,1.35-1.39-.15-.39-1.01-.4-1.92-.03-.89.39-1.5,1-1.35,1.39.15.39,1.01.39,1.91.02Z"/><path class="cls-2" d="M211.01,186.71c.15.39-.45,1-1.35,1.39-.9.37-1.75.36-1.91-.02-.15-.39.45-1,1.35-1.39.91-.37,1.76-.36,1.92.03Z"/><path class="cls-1" d="M198.67,133.99l-.06.65c.51,6.65-8.45-1.79-5.47,12.38.74,3.51.63,17.86-.64,23.59,1.72,4.36,1.92,10.63,2.23,12.74h-.02c-.04-.24-.08-.49-.11-.75-.45.02-.92.01-1.41-.02-.3-2.12-.51-8.38-2.23-12.73,1.27-5.74,1.37-20.08.64-23.59-2.98-14.18,5.97-5.73,5.46-12.39v-.03s1.6.15,1.6.15Z"/><path class="cls-1" d="M197.07,133.84v.03c.51,6.65-8.44-1.79-5.46,12.39.74,3.51.63,17.86-.64,23.59,1.71,4.36,1.92,10.61,2.23,12.73-3.53-.2-7.94-1.4-12.09-.63l-.02-.1c0-2.87.64-7.57.96-11.37-.74-4.57-.77-11.25.32-16.26.86-3.9.84-11.48,1.91-15.3.64-2.29-3.45-5.17-4.35-6.47.02-.29.03-.56.07-.81.68-5.37,5.2-4.63,10.16-3.67,2.98.58,5.12,2.31,4.61,5.63l2.3.22Z"/><path class="cls-10" d="M197.07,187.26c-.4,1.24,2.09,4.06,2.02,6.11-1.29-.04-2.26-1.45-2.93-2.73-.04-.8-.14-1.52-.28-2.22.39-.29.66-.43.94-.68.14-.13.18-.33.22-.49h.03Z"/><path class="cls-1" d="M201.43,207.66c-.82.45-3.04,1.3-4.61,1.96l-.11-.25c.59-1.23.84-2.76.88-4.43,1.47,1.45,2.5,2.31,4.01,2.62-.05.03-.1.06-.16.1h0Z"/><path class="cls-6" d="M196.16,190.64c.02.28.02.57.02.88-.04,2.81,1.53,8.65,1.41,13.42-.04,1.66-.29,3.2-.88,4.43l.11.25c-.77.33-1.39.6-1.62.77-.17,1.89.32,5.48.76,8.14l-.53.08c-2.87,4.15-59.67,1.96-61.2-.64-.2-.38-.24-.72-.14-1.03.6-1.98,6.57-2.61,7.68-5.06.04-.09.08-.19.11-.29.16-.56.44-1.15.8-1.75,1.12-1.85,2.98-3.77,3.99-5.27.57-.83,1.04-2.11,1.38-3.52,0-.02.01-.05.02-.08.45-1.87.68-3.97.62-5.64,5.15-.15,9.68-.21,13.7-.18,6.75.06,12.06.39,16.47,1.03,0-.4,0-.79,0-1.17,0-2.27-1.09-7.5,0-12.43.74-.29,1.49-.5,2.24-.65,4.15-.78,8.57.43,12.09.63.49.03.96.04,1.41.02.03.26.07.51.11.76.31,1.95.84,3.42,1.16,5.06.14.69.24,1.41.28,2.22Z"/><path class="cls-3" d="M160.05,130.32c.64.47.96,1.14,1.04,1.91h-.08c-1.98-.31-3.88-.69-5.72-1.04-5.55-1.07-10.61-1.94-16.07-.38-4.17,1.2-7.3,2.18-8.11,2.43-.33-.61-.65-1.51-.32-1.96,2.46-.97,3.87-1.62,7.86-2.38,3.77-.72,7.38-.68,10.72-.37,4.02.38,7.65,1.18,10.7,1.59l-.02.21Z"/><path class="cls-3" d="M154.46,136.53c.45-1.57.82-3.48.81-5.26l.02-.1c1.84.36,3.73.73,5.72,1.05h.08c.25,2.55-2.2,6.12-4.22,6.69-.93-.28-1.96-.4-3.03-.4v-.08c.2-.53.42-1.18.62-1.91Z"/><path class="cls-1" d="M163.14,164.07s-.04-.05-.06-.06c.02.02.03.03.06.06ZM155.65,176.13c-3.05-1.93-6.24-6.13-9.14-11.03-4.78-8.11-8.78-18.14-10.05-22.99l-.05-.07c.9-.7,2.57-1.87,6.25-1.66h0c-.14.47.66,1.67,1.92,3.19,2.87,3.48,8.13,8.66,9.88,10.66,2.97,3.4,12.05,13.31,8.92,10.07-.02-.03-.05-.05-.07-.07,1.58,1.76,10.61,12.78,4.95,22.44-.01-.02-.02-.04-.02-.03,0,0,0,.02.01.03-4.99,1.48-12.3-2.74-15.83-6.5.49-.49,1.96-2.12,3.18-3.96l.06-.09Z"/><path class="cls-1" d="M168.26,186.68c.01.06,0,.04-.01.02t.01-.02Z"/><path class="cls-1" d="M168.26,186.68s0,0-.01.02c0,0,0-.01,0-.01t.01,0Z"/><path class="cls-1" d="M168.26,186.68s0,0-.01,0c0-.01-.01-.02-.01-.03,0,0,.01,0,.02.03Z"/><path class="cls-12" d="M152.42,180.19c3.53,3.75,10.84,7.98,15.83,6.5,0,0,0,0,0,.01-3.31,5.81-3.48,6.95-5.86,8.47-4.02-.03-8.55.03-13.7.18.06,1.67-.17,3.77-.62,5.64.46-2.45.63-10.03.49-17.27h.19c.74-1.67,1.85-3.28,2.86-4.47.24.31.51.62.81.94Z"/><path class="cls-3" d="M143.43,139.82c-.39.82.25,2.62,1.16,3.75h0c-1.26-1.51-2.06-2.71-1.92-3.17h0c-3.68-.22-5.35.94-6.25,1.64-.66.51-.9.77-1.22.07-1.35-1.02-2.3-6.31-3.83-8.92.5,1.05.11.72-.25.04.81-.26,3.94-1.23,8.11-2.43,5.46-1.56,10.51-.69,16.07.38l-.02.1c.02,1.78-.36,3.69-.81,5.26-2.7-.48-8.4,2.33-11.04,3.28Z"/><path class="cls-3" d="M145.81,143.89c.3.51.41.81-.1.61-.38-.15-.77-.49-1.12-.93-.91-1.13-1.55-2.93-1.16-3.75,2.64-.96,8.33-3.76,11.04-3.28-.2.73-.42,1.39-.63,1.91v.08c-3.73,0-7.85,1.44-8.77,2.15-.88.69.21,2.3.74,3.21Z"/><path class="cls-12" d="M147.71,170.36s.03.03,0,.02c0,0,0-.01,0-.02Z"/><path class="cls-12" d="M147.71,170.36s0,.01,0,.02c0,0,0,0-.02-.01t.01,0Z"/><path class="cls-12" d="M147.71,170.36s0,0-.01,0c0,0-.01,0-.02,0,0,0,0,0,0,0,0,0,.01,0,.03,0Z"/><path class="cls-12" d="M147.67,170.4s.02-.02.02-.03c0,0,.02.01.02.01.46,2.74.74,7.94.84,13.33.14,7.24-.03,14.83-.49,17.27,0,.03,0,.05-.02.08-.35,1.42-.82,2.69-1.38,3.52-1.01,1.5-2.87,3.42-3.99,5.27-9.6-3.02-6.71-27.03-1.69-35.5h0c2.87-.79,5.39-2.07,6.69-3.95Z"/><path class="cls-1" d="M100.96,148.61c.35.29,1.06.61,2,.93,1.04.95,1.79,1.16,2.41.74,4.35,1.21,10.49,2.45,12.8,3.09,4.36,1.22,8.73,2.02,12.99,3.52,9.84,3.46,13.46,5.88,15.01,8.42.94,1.54,1.13,3.14,1.5,5.04,0,0,0,0,0,0,0,0,0,0,0,0,0,.01,0,.03,0,.04-1.29,1.89-3.82,3.17-6.69,3.95-.89.24-1.81.44-2.74.59-3.18.52-6.43.51-8.7.11.43-1.03.82-2.21,1.53-3.59h-.03c-8.44.59-25.76-11.06-33.1-17.29-.36-.31-.7-.6-1.01-.89l-.22.04c.45-1.54,1.42-3.48,3.98-5.01h0c.03.1.11.21.25.31Z"/><path class="cls-12" d="M147.67,170.35s0,0,0,0c0,0,0,0,0,0Z"/><path class="cls-12" d="M140.99,174.35h0c-5.02,8.48-7.92,32.49,1.69,35.5-.36.6-.64,1.18-.8,1.75-.03.1-.07.19-.11.29-12.75-3.48-9.57-24.09-3.53-36.95.93-.15,1.86-.34,2.74-.59Z"/><path class="cls-12" d="M129.54,175.04c2.27.4,5.52.41,8.7-.11-6.04,12.86-9.22,33.47,3.53,36.95-1.11,2.45-7.07,3.09-7.68,5.06-8.75-1.69-13.13-13.86-11.82-19.94,1.53-7.03,3.24-13.33,5.73-19.95.27-.72.55-1.5.78-2.15l.18.02c.18.04.37.08.57.12Z"/><path class="cls-3" d="M107.49,125.37c4.19,1.92,3.11,7.78,1.95,10.38-.5.05-1.16-.11-1.87-.41-2.28-.95-5.14-3.28-5.37-4.54l-.17-.16c1.63-1.81,3.42-3.56,5.43-5.21l.03-.06Z"/><path class="cls-3" d="M107.49,125.37l-.03.06c-2.01,1.65-3.8,3.4-5.43,5.21-3.6,4.01-6.44,8.34-9.3,12.69-2.58,3.93-4.4,6.87-4.65,7.27l-.72.21c-.33-.5-.94-1.47-.72-1.62,1.24-2.35,2.28-3.47,4.41-6.93,5-8.14,9.72-14.08,14.23-17.53l.05.07c.84.1,1.55.29,2.16.57Z"/><path class="cls-3" d="M106,149.61c-.05.04-.12.07-.2.1-1.44.49-3.23-2.06-3.43-3.31,1.67-3.1,4.01-8.37,4.93-10.63l.28-.43c.71.3,1.38.47,1.87.41-.2.45-.4.8-.57,1.02-1.56,2.48-4.51,7.69-4.8,9.17-.32,1.61,2.75,3.09,1.92,3.68Z"/><path class="cls-3" d="M100.71,148.3c-2.57,1.53-3.53,3.47-3.98,5.01l.22-.04c.32.28.65.58,1.01.89l-.06.07c.06.72-.26,2.06-.74,2.76-1.91.21-5.92-2.91-8.82-5.95l-.77.07s-.08-.12-.2-.3l.72-.21c.25-.4,2.07-3.34,4.65-7.27,2.86-4.35,5.7-8.68,9.3-12.69l.17.16c.23,1.25,3.1,3.59,5.37,4.54l-.28.43c-.92,2.26-3.26,7.53-4.93,10.63-.33.62-.63,1.14-.9,1.55-.2.3-.36.53-.5.68-.14-.1-.22-.21-.25-.31h0Z"/><path class="cls-4" d="M105.79,149.7c.09-.03.15-.06.2-.1-.19.3-.4.54-.62.68-.9-.25-1.71-.5-2.41-.74-.44-.4-.94-.93-1.5-1.61.27-.4.57-.93.9-1.55.19,1.25,1.99,3.81,3.43,3.31Z"/><path class="cls-4" d="M105.37,150.29c-.62.42-1.38.21-2.41-.74.7.24,1.51.49,2.41.74Z"/><path class="cls-7" d="M148.05,201.06c-.04.18-.07.33-.11.44"/><path class="cls-7" d="M147.67,170.36s.01,0,.03,0c0,0,0,.01,0,.02.46,2.74.74,7.94.84,13.33.14,7.24-.03,14.83-.49,17.27"/><path class="cls-7" d="M147.67,170.36s0,0,0,0"/><path class="cls-7" d="M128.98,174.93c.18.04.37.08.57.12,2.27.4,5.52.41,8.7-.11.93-.15,1.86-.34,2.74-.59,2.87-.78,5.39-2.06,6.69-3.95.01,0,.02-.02.02-.03t.01,0s.03.03,0,.02c0,0,0,0-.02-.01,0,0-.01,0-.02,0"/><path class="cls-7" d="M134.32,217c-.07-.01-.15-.03-.22-.05-8.75-1.69-13.13-13.86-11.82-19.94,1.53-7.03,3.24-13.33,5.73-19.95.27-.72.55-1.5.78-2.15.04-.09.07-.18.1-.27"/><path class="cls-8" d="M148.69,195.35c.06,1.67-.17,3.77-.62,5.64,0,.03,0,.05-.02.08-.35,1.42-.82,2.69-1.38,3.52-1.01,1.5-2.87,3.42-3.99,5.27-.36.6-.64,1.18-.8,1.75-.03.1-.07.19-.11.29-1.11,2.45-7.07,3.09-7.68,5.06-.1.31-.06.64.14,1.03"/><path class="cls-7" d="M140.99,174.36c-5.02,8.47-7.92,32.48,1.69,35.5.08.04.17.06.25.08"/><path class="cls-7" d="M138.36,174.71c-.04.08-.07.15-.11.23-6.04,12.86-9.22,33.47,3.53,36.95.03.01.07.02.11.03"/><path class="cls-8" d="M148.69,195.35c5.15-.15,9.68-.21,13.7-.18,6.75.06,12.06.39,16.47,1.03"/><path class="cls-8" d="M216.54,180.29c-.28-.01-.56,0-.86.04-1.64.21-3.45,1.13-4.14,1.71-1.62,1.37-7.1,3.33-8.64-.4-1.76.73-2.23,2.74-2.22,4.53-1.41,1.05-2.42.99-3.46.89-.12-.03-.16.06-.2.19-.04.16-.07.36-.22.49-.28.25-.55.39-.94.68,0,0-.02,0-.02.02"/><path class="cls-8" d="M216.36,178.82c.23.42.45.81.66,1.2,2.94,5.4,3.94,8.72,4.49,17.12.03.42.06.87.08,1.32"/><path class="cls-8" d="M213.23,177.57c1.88,1.39,1.91,1.24,2.45,2.64"/><path class="cls-8" d="M236.62,180.07c-6.67-4.35-16.76-5.59-22.77-2.76"/><path class="cls-8" d="M201.43,207.66c-.82.45-3.04,1.3-4.61,1.96-.77.33-1.39.6-1.62.77"/><path class="cls-8" d="M201.6,207.56s-.1.06-.16.1"/><path class="cls-8" d="M221.47,197.15c-7.82,8-17.28,9.75-20.03,10.51h0c-.09.03-.17.05-.25.07"/><path class="cls-8" d="M235.78,179.48c.29.17.57.36.85.58,3.3,2.56,6.41,8.78,7.68,13.69,1.81,7.03.45,13.42-3.09,19.76-2.94,5.28-7.77,4.88-11.55,7.04-5.69.74-17.93,2.41-33.11,1.27,0,0-.28-1.41-.6-3.3-.44-2.66-.93-6.25-.76-8.14"/><path class="cls-8" d="M209.66,188.1c-.9.37-1.75.36-1.91-.02-.15-.39.45-1,1.35-1.39.91-.37,1.76-.36,1.92.03.15.39-.45,1-1.35,1.39Z"/><path class="cls-8" d="M212.09,184.72c1.64-.09,2.39,1.18,1.87,2.95"/><path class="cls-8" d="M197.07,187.26c-.4,1.24,2.09,4.06,2.02,6.11"/><path class="cls-8" d="M233.39,196.16c-4.26,2.12-11.77,2.69-11.79,2.31"/><path class="cls-8" d="M231.57,178.74c-6.11-.87-11.6-1.44-15.21.08"/><path class="cls-8" d="M213.23,177.57c.22-.05.43-.09.65-.13,6.99-1.44,14.33-.95,17.69,1.3"/><path class="cls-8" d="M197.56,204.91s.02.02.03.03c1.47,1.45,2.5,2.31,4.01,2.62"/><path class="cls-8" d="M199.09,193.37c-1.29-.04-2.26-1.45-2.93-2.73-.03-.05-.05-.11-.08-.16"/><path class="cls-8" d="M96.94,153.27c.32.28.65.58,1.01.89,7.34,6.24,24.66,17.88,33.1,17.28"/><path class="cls-8" d="M147.67,170.36s0,.03,0,.04c.04.18.07.37.11.56"/><path class="cls-7" d="M147.67,170.35s0,0,0,0c0,0,0,0,0,0"/><path class="cls-8" d="M100.71,148.3c.03.1.11.21.25.31.35.29,1.06.61,2,.93.7.24,1.51.49,2.41.74,4.35,1.21,10.49,2.45,12.8,3.09,4.36,1.22,8.73,2.02,12.99,3.52,9.84,3.46,13.46,5.88,15.01,8.42.94,1.54,1.13,3.14,1.5,5.04"/><path class="cls-8" d="M101.16,148.04c-.16.08-.31.17-.46.26h0c-2.57,1.54-3.53,3.48-3.98,5.02-.52,1.77-.36,3.01-1.18,2.48"/><path class="cls-8" d="M88.08,150.6c.25-.4,2.07-3.34,4.65-7.27,2.86-4.35,5.7-8.68,9.3-12.69,1.63-1.81,3.42-3.56,5.43-5.21"/><path class="cls-8" d="M100.63,148.78c.07.04.19-.02.33-.16.14-.15.31-.38.5-.68.27-.4.57-.93.9-1.55,1.67-3.1,4.01-8.37,4.93-10.63"/><path class="cls-8" d="M102.36,146.37s0,.01,0,.02c.19,1.25,1.99,3.81,3.43,3.31.09-.03.15-.06.2-.1.83-.59-2.24-2.07-1.92-3.68.29-1.47,3.24-6.69,4.8-9.17"/><path class="cls-8" d="M105.28,124.73c-4.5,3.45-9.22,9.39-14.23,17.53-2.13,3.46-3.18,4.59-4.41,6.93-.22.15.39,1.12.72,1.62.12.18.2.3.2.3"/><path class="cls-8" d="M101.34,147.79c.04.05.08.1.13.15.55.68,1.05,1.21,1.5,1.61,1.04.95,1.79,1.16,2.41.74.23-.14.43-.38.62-.68.05-.07.09-.14.13-.22"/><path class="cls-8" d="M180.77,214.78c-1.79-4.46-1.91-12.83-1.91-18.59,0-.4,0-.79,0-1.17,0-2.27-1.09-7.5,0-12.43.74-.29,1.49-.5,2.24-.65,4.15-.78,8.57.43,12.09.63.49.03.96.04,1.41.02.03.26.07.51.11.76.31,1.95.84,3.42,1.16,5.06.14.69.24,1.41.28,2.22.02.28.02.57.02.88-.04,2.81,1.53,8.65,1.41,13.42-.04,1.66-.29,3.2-.88,4.43"/><path class="cls-8" d="M134.23,217.98c1.53,2.59,58.33,4.78,61.2.64"/><path class="cls-8" d="M182.04,170.49c-.32,3.8-.95,8.49-.96,11.37"/><path class="cls-8" d="M190.97,169.85c1.71,4.36,1.92,10.61,2.23,12.73,0,0,0,.01,0,.02"/><path class="cls-8" d="M182.04,170.49c-.74-4.57-.77-11.25.32-16.26.86-3.9.84-11.48,1.91-15.3.64-2.29-3.45-5.17-4.35-6.47-.16-.24-.22-.42-.11-.54"/><path class="cls-8" d="M197.07,133.87c.51,6.65-8.44-1.79-5.46,12.39.74,3.51.63,17.86-.64,23.59"/><path class="cls-8" d="M168.23,186.65h0s.01.01.02.03t-.01.02c-3.31,5.81-3.48,6.95-5.86,8.47-.03.03-.07.05-.1.07"/><path class="cls-8" d="M151.6,179.25c.24.31.51.62.81.94,3.53,3.75,10.84,7.98,15.83,6.5t.01,0c.01.06,0,.04-.01.02,0,0,0-.01,0-.01,0-.01-.01-.02-.01-.03"/><path class="cls-8" d="M136.46,142.11c1.27,4.84,5.27,14.88,10.05,22.99,2.9,4.9,6.09,9.11,9.14,11.03.85.54,1.67.89,2.49,1.05"/><path class="cls-8" d="M163.31,164.24c1.58,1.76,10.61,12.78,4.95,22.44"/><path class="cls-8" d="M163.09,164.01s.04.03.06.06"/><path class="cls-8" d="M163.14,164.07s-.04-.04-.06-.06c0-.02-.02-.02-.02-.02"/><path class="cls-8" d="M163.14,164.07s.06.05.1.1c.02.02.05.04.07.07"/><path class="cls-8" d="M142.66,140.4c-.14.46.66,1.66,1.92,3.18,2.87,3.48,8.13,8.66,9.88,10.66,2.97,3.4,12.05,13.31,8.92,10.07-.02-.03-.05-.05-.07-.07"/><path class="cls-8" d="M143.19,140.42c-.18-.02-.36-.03-.53-.03-3.68-.21-5.35.95-6.25,1.66-.66.51-.9.77-1.22.07"/><path class="cls-8" d="M130.95,133.28s.09-.03.16-.04c.81-.26,3.94-1.23,8.11-2.43,5.46-1.56,10.51-.69,16.07.38,1.84.36,3.73.73,5.72,1.05"/><path class="cls-8" d="M142.04,140.04c.08.19.59.07,1.39-.22,2.64-.96,8.33-3.76,11.04-3.28t.01,0"/><path class="cls-8" d="M143.48,139.72s-.04.06-.05.09c-.39.82.25,2.62,1.16,3.75.35.44.74.78,1.12.93.51.2.39-.1.1-.61-.52-.92-1.62-2.52-.74-3.21.92-.72,5.04-2.15,8.77-2.15,1.07,0,2.1.12,3.03.4"/><path class="cls-8" d="M161.97,130.32c-.6-.05-1.23-.12-1.89-.21-3.05-.41-6.68-1.2-10.7-1.59-3.34-.32-6.95-.35-10.72.37-4,.76-5.4,1.41-7.86,2.38-.33.45,0,1.35.32,1.96.37.68.75,1,.25-.04"/><path class="cls-8" d="M143.48,140.32c1.09,3.77,1.57,3.87,2.33,3.58.02,0,.04-.01.06-.02"/><path class="cls-8" d="M107.49,125.37c4.19,1.92,3.11,7.78,1.95,10.38-.2.45-.4.8-.57,1.02"/><path class="cls-7" d="M105.34,124.79c.84.1,1.55.29,2.16.57"/><path class="cls-8" d="M156.87,138.92c2.02-.58,4.47-4.14,4.22-6.7-.08-.76-.4-1.44-1.04-1.91"/><path class="cls-8" d="M131.36,133.19c1.52,2.61,2.48,7.91,3.83,8.92"/><path class="cls-8" d="M88.34,151.04c2.9,3.04,6.91,6.16,8.82,5.95.48-.7.8-2.05.74-2.76"/><path class="cls-8" d="M129.45,175.26c.03-.07.06-.14.09-.22.43-1.03.82-2.21,1.53-3.59.26-.51.56-1.04.93-1.6"/><path class="cls-8" d="M148.74,183.71c.74-1.66,1.85-3.28,2.86-4.46"/><path class="cls-8" d="M155.59,176.22c-1.22,1.84-2.69,3.47-3.18,3.96,0,0-.01,0-.02.02"/><path class="cls-8" d="M102.2,130.8c.23,1.25,3.1,3.59,5.37,4.54.71.3,1.38.47,1.87.41.03,0,.06,0,.08,0"/><path class="cls-8" d="M155.27,131.28c.02,1.78-.36,3.69-.81,5.26-.2.73-.42,1.39-.63,1.91"/><polyline class="cls-9" points="194.77 133.62 197.07 133.84 198.67 133.99 245.71 138.48"/><polyline class="cls-9" points="93.15 122.6 105.72 123.91 149.39 128.46 179.84 131.63"/><path class="cls-7" d="M179.92,132.59s0-.09,0-.13c.02-.29.03-.56.07-.81.68-5.37,5.2-4.63,10.16-3.67,2.98.58,5.12,2.31,4.61,5.63"/><path class="cls-8" d="M192.51,170.61c1.72,4.36,1.92,10.63,2.23,12.74h0"/><path class="cls-8" d="M198.61,134.64c.51,6.65-8.45-1.79-5.47,12.38.74,3.51.63,17.86-.64,23.59"/><path class="cls-2" d="M177.07,19.08c4.82.55,5.7,1.08,8.13,4.39,1.42,2.11,2.54,4.19,2.48,4.72-.06.53.59,2.12,1.55,3.75,3.93,6.62,5.7,30.43,2.89,39.65-.87,3.04-1.96,8.12-2.31,11.22-.84,7.38-3.04,12.22-12.58,27.61-7.37,11.84-15.55,15.24-23.66,9.77-9.45-6.49-14.46-14.53-15.17-24.79-.14-2.4-.53-6.35-.88-8.77-.63-5.38,1.89-23.07,4.4-30.59,3.91-11.58,4.92-14.07,8.23-19.43,3.97-6.59,12.21-14.22,17.65-16.42,2.3-1.04,5.97-1.38,9.27-1.12ZM170.77,27.03c-2.98-.34-10.87,7-15.46,14.5-4.44,7.08-10.37,24.6-11.41,33.8-.82,7.27,1.13,23.96,3.32,27.57,4.89,8.25,14.52,12.15,19.98,8,1.59-1.22,4.71-5.86,6.99-10.36,2.38-4.5,4.77-9.1,5.42-10.22,2.01-3.49,3.44-11.42,4.75-16.25,2.26-8.95,2.72-28.61.81-33.71-1.76-4.64-4.5-8.96-5.72-9.1-1.82-.21-6.56-3.99-8.67-4.23Z"/><path class="cls-2" d="M114.75,114.73c-1.5,1.31-3.58,2.25-4.61,2.13-3.49-.39-3.87-6.18-1.47-24.61,8.84-68.81,8.39-63.97,6.24-65.18-1.18-.56,3.63-12.76,4.4-13.21.79-.55,3.21-.8,5.46-.55,2.16.24-.34,14.94-3.36,37.98-1.35,10.05-2.88,19.86-3.41,21.82-1.45,5.47-4.25,30.23-3.58,31.58"/><path class="cls-2" d="M245.13,26.79c4.82.55,5.7,1.08,8.13,4.39,1.42,2.11,2.54,4.19,2.48,4.72-.06.53.59,2.12,1.55,3.75,3.93,6.62,5.7,30.43,2.89,39.65-.87,3.04-1.96,8.12-2.31,11.22-.84,7.38-3.04,12.22-12.58,27.61-7.37,11.84-15.55,15.24-23.66,9.78-9.45-6.49-14.46-14.53-15.17-24.79-.15-2.4-.53-6.35-.88-8.77-.64-5.38,1.89-23.07,4.4-30.59,3.91-11.58,4.92-14.07,8.23-19.43,3.97-6.59,12.21-14.22,17.65-16.42,2.3-1.04,5.97-1.38,9.27-1.12ZM238.83,34.74c-2.98-.34-10.87,7-15.46,14.5-4.44,7.08-10.37,24.6-11.41,33.8-.82,7.27,1.13,23.96,3.32,27.57,4.89,8.25,14.52,12.15,19.98,8,1.59-1.22,4.71-5.86,6.99-10.36,2.38-4.5,4.78-9.1,5.42-10.22,2.01-3.49,3.44-11.42,4.75-16.25,2.26-8.95,2.72-28.61.81-33.71-1.76-4.64-4.49-8.96-5.72-9.1-1.82-.21-6.56-3.99-8.66-4.23Z"/></svg>